{
    "asset" : {
        "generator" : "Khronos glTF Blender I/O v1.3.48",
        "version" : "2.0"
    },
    "scene" : 0,
    "scenes" : [
        {
            "name" : "Scene",
            "nodes" : [
                8
            ]
        }
    ],
    "nodes" : [
        {
            "name" : "Bone",
            "rotation" : [
                -0.11952561140060425,
                -0.021425534039735794,
                0.2435714304447174,
                0.9622513055801392
            ],
            "scale" : [
                1.0000003576278687,
                1,
                1.0000004768371582
            ],
            "translation" : [
                0.2407354861497879,
                -0.238653302192688,
                0.18230396509170532
            ]
        },
        {
            "name" : "Bone.003",
            "rotation" : [
                -0.013669943436980247,
                -0.017078489065170288,
                -0.53122478723526,
                0.8469484448432922
            ],
            "scale" : [
                1.000000238418579,
                1.0000001192092896,
                1.0000001192092896
            ],
            "translation" : [
                -7.237126453674136e-08,
                0.38603875041007996,
                3.053304098443732e-08
            ]
        },
        {
            "children" : [
                1
            ],
            "name" : "Bone.004",
            "rotation" : [
                0.004847079515457153,
                -0.002362871775403619,
                -0.18040865659713745,
                0.9835769534111023
            ],
            "scale" : [
                1.0000004768371582,
                1,
                1.0000001192092896
            ],
            "translation" : [
                -9.083349183924838e-09,
                0.38179337978363037,
                -2.6890413451496897e-08
            ]
        },
        {
            "name" : "Bone.005",
            "rotation" : [
                0.5144568681716919,
                0.06911566853523254,
                -0.21146665513515472,
                0.8281540274620056
            ],
            "scale" : [
                1.000000238418579,
                0.9999999403953552,
                1.000000238418579
            ],
            "translation" : [
                2.445975422205038e-09,
                0.38179340958595276,
                -5.2234014447094523e-08
            ]
        },
        {
            "name" : "Bone.006",
            "rotation" : [
                -0.4044995903968811,
                -0.06763678044080734,
                -0.10590518265962601,
                0.9058639407157898
            ],
            "scale" : [
                0.9999998807907104,
                1,
                1
            ],
            "translation" : [
                2.1150986739826294e-08,
                0.38179343938827515,
                -8.129956086122547e-08
            ]
        },
        {
            "children" : [
                2,
                3,
                4
            ],
            "name" : "Bone.002",
            "rotation" : [
                -0.5168800354003906,
                -0.4989081025123596,
                -0.5294988751411438,
                0.4511726200580597
            ],
            "scale" : [
                0.9999996423721313,
                0.9999997615814209,
                0.9999994039535522
            ],
            "translation" : [
                -0.053065452724695206,
                0.5157123804092407,
                -0.0582985021173954
            ]
        },
        {
            "name" : "Bone.001",
            "rotation" : [
                -0.9524553418159485,
                0.27938076853752136,
                -0.04389359429478645,
                0.11335239559412003
            ],
            "scale" : [
                0.9999998211860657,
                1.0000001192092896,
                0.9999995231628418
            ],
            "translation" : [
                0.30453911423683167,
                1.2621073722839355,
                0.1877308338880539
            ]
        },
        {
            "mesh" : 0,
            "name" : "Circle.002",
            "skin" : 0
        },
        {
            "children" : [
                7,
                0,
                5,
                6
            ],
            "name" : "aortic 3.001",
            "rotation" : [
                -0.12177436798810959,
                -0.2911686301231384,
                -0.9023507237434387,
                0.2935217618942261
            ],
            "scale" : [
                0.09198523312807083,
                0.09198524057865143,
                0.09198523312807083
            ],
            "translation" : [
                0.07532432675361633,
                -0.020205587148666382,
                0.11795565485954285
            ]
        }
    ],
    "animations" : [
        {
            "channels" : [
                {
                    "sampler" : 0,
                    "target" : {
                        "node" : 0,
                        "path" : "translation"
                    }
                },
                {
                    "sampler" : 1,
                    "target" : {
                        "node" : 0,
                        "path" : "rotation"
                    }
                },
                {
                    "sampler" : 2,
                    "target" : {
                        "node" : 0,
                        "path" : "scale"
                    }
                },
                {
                    "sampler" : 3,
                    "target" : {
                        "node" : 6,
                        "path" : "translation"
                    }
                },
                {
                    "sampler" : 4,
                    "target" : {
                        "node" : 6,
                        "path" : "rotation"
                    }
                },
                {
                    "sampler" : 5,
                    "target" : {
                        "node" : 6,
                        "path" : "scale"
                    }
                },
                {
                    "sampler" : 6,
                    "target" : {
                        "node" : 5,
                        "path" : "translation"
                    }
                },
                {
                    "sampler" : 7,
                    "target" : {
                        "node" : 5,
                        "path" : "rotation"
                    }
                },
                {
                    "sampler" : 8,
                    "target" : {
                        "node" : 5,
                        "path" : "scale"
                    }
                },
                {
                    "sampler" : 9,
                    "target" : {
                        "node" : 2,
                        "path" : "translation"
                    }
                },
                {
                    "sampler" : 10,
                    "target" : {
                        "node" : 2,
                        "path" : "rotation"
                    }
                },
                {
                    "sampler" : 11,
                    "target" : {
                        "node" : 2,
                        "path" : "scale"
                    }
                },
                {
                    "sampler" : 12,
                    "target" : {
                        "node" : 1,
                        "path" : "translation"
                    }
                },
                {
                    "sampler" : 13,
                    "target" : {
                        "node" : 1,
                        "path" : "rotation"
                    }
                },
                {
                    "sampler" : 14,
                    "target" : {
                        "node" : 1,
                        "path" : "scale"
                    }
                },
                {
                    "sampler" : 15,
                    "target" : {
                        "node" : 3,
                        "path" : "translation"
                    }
                },
                {
                    "sampler" : 16,
                    "target" : {
                        "node" : 3,
                        "path" : "rotation"
                    }
                },
                {
                    "sampler" : 17,
                    "target" : {
                        "node" : 3,
                        "path" : "scale"
                    }
                },
                {
                    "sampler" : 18,
                    "target" : {
                        "node" : 4,
                        "path" : "translation"
                    }
                },
                {
                    "sampler" : 19,
                    "target" : {
                        "node" : 4,
                        "path" : "rotation"
                    }
                },
                {
                    "sampler" : 20,
                    "target" : {
                        "node" : 4,
                        "path" : "scale"
                    }
                }
            ],
            "name" : "Animation",
            "samplers" : [
                {
                    "input" : 7,
                    "interpolation" : "LINEAR",
                    "output" : 8
                },
                {
                    "input" : 7,
                    "interpolation" : "LINEAR",
                    "output" : 9
                },
                {
                    "input" : 7,
                    "interpolation" : "LINEAR",
                    "output" : 10
                },
                {
                    "input" : 7,
                    "interpolation" : "LINEAR",
                    "output" : 11
                },
                {
                    "input" : 7,
                    "interpolation" : "LINEAR",
                    "output" : 12
                },
                {
                    "input" : 7,
                    "interpolation" : "LINEAR",
                    "output" : 13
                },
                {
                    "input" : 7,
                    "interpolation" : "LINEAR",
                    "output" : 14
                },
                {
                    "input" : 7,
                    "interpolation" : "LINEAR",
                    "output" : 15
                },
                {
                    "input" : 7,
                    "interpolation" : "LINEAR",
                    "output" : 16
                },
                {
                    "input" : 7,
                    "interpolation" : "LINEAR",
                    "output" : 17
                },
                {
                    "input" : 7,
                    "interpolation" : "LINEAR",
                    "output" : 18
                },
                {
                    "input" : 7,
                    "interpolation" : "LINEAR",
                    "output" : 19
                },
                {
                    "input" : 7,
                    "interpolation" : "LINEAR",
                    "output" : 20
                },
                {
                    "input" : 7,
                    "interpolation" : "LINEAR",
                    "output" : 21
                },
                {
                    "input" : 7,
                    "interpolation" : "LINEAR",
                    "output" : 22
                },
                {
                    "input" : 7,
                    "interpolation" : "LINEAR",
                    "output" : 23
                },
                {
                    "input" : 7,
                    "interpolation" : "LINEAR",
                    "output" : 24
                },
                {
                    "input" : 7,
                    "interpolation" : "LINEAR",
                    "output" : 25
                },
                {
                    "input" : 7,
                    "interpolation" : "LINEAR",
                    "output" : 26
                },
                {
                    "input" : 7,
                    "interpolation" : "LINEAR",
                    "output" : 27
                },
                {
                    "input" : 7,
                    "interpolation" : "LINEAR",
                    "output" : 28
                }
            ]
        }
    ],
    "materials" : [
        {
            "doubleSided" : true,
            "emissiveFactor" : [
                0,
                0,
                0
            ],
            "name" : "GoB_Cube_004.001",
            "pbrMetallicRoughness" : {
                "baseColorFactor" : [
                    0.49692243337631226,
                    0.4600217342376709,
                    0.43407759070396423,
                    1
                ],
                "metallicFactor" : 0,
                "roughnessFactor" : 0.08937197923660278
            }
        }
    ],
    "meshes" : [
        {
            "name" : "Circle.002",
            "primitives" : [
                {
                    "attributes" : {
                        "POSITION" : 0,
                        "NORMAL" : 1,
                        "TEXCOORD_0" : 2,
                        "JOINTS_0" : 3,
                        "WEIGHTS_0" : 4
                    },
                    "indices" : 5,
                    "material" : 0
                }
            ]
        }
    ],
    "skins" : [
        {
            "inverseBindMatrices" : 6,
            "joints" : [
                0,
                5,
                2,
                1,
                3,
                4,
                6
            ],
            "name" : "aortic 3.001"
        }
    ],
    "accessors" : [
        {
            "bufferView" : 0,
            "componentType" : 5126,
            "count" : 428,
            "max" : [
                0.1373516172170639,
                0.020695962011814117,
                0.228153795003891
            ],
            "min" : [
                0.047874804586172104,
                -0.09116566926240921,
                0.12427908927202225
            ],
            "type" : "VEC3"
        },
        {
            "bufferView" : 1,
            "componentType" : 5126,
            "count" : 428,
            "type" : "VEC3"
        },
        {
            "bufferView" : 2,
            "componentType" : 5126,
            "count" : 428,
            "type" : "VEC2"
        },
        {
            "bufferView" : 3,
            "componentType" : 5123,
            "count" : 428,
            "type" : "VEC4"
        },
        {
            "bufferView" : 4,
            "componentType" : 5126,
            "count" : 428,
            "type" : "VEC4"
        },
        {
            "bufferView" : 5,
            "componentType" : 5123,
            "count" : 2556,
            "type" : "SCALAR"
        },
        {
            "bufferView" : 6,
            "componentType" : 5126,
            "count" : 7,
            "type" : "MAT4"
        },
        {
            "bufferView" : 7,
            "componentType" : 5126,
            "count" : 19,
            "max" : [
                0.7916666666666666
            ],
            "min" : [
                0.041666666666666664
            ],
            "type" : "SCALAR"
        },
        {
            "bufferView" : 8,
            "componentType" : 5126,
            "count" : 19,
            "type" : "VEC3"
        },
        {
            "bufferView" : 9,
            "componentType" : 5126,
            "count" : 19,
            "type" : "VEC4"
        },
        {
            "bufferView" : 10,
            "componentType" : 5126,
            "count" : 19,
            "type" : "VEC3"
        },
        {
            "bufferView" : 11,
            "componentType" : 5126,
            "count" : 19,
            "type" : "VEC3"
        },
        {
            "bufferView" : 12,
            "componentType" : 5126,
            "count" : 19,
            "type" : "VEC4"
        },
        {
            "bufferView" : 13,
            "componentType" : 5126,
            "count" : 19,
            "type" : "VEC3"
        },
        {
            "bufferView" : 14,
            "componentType" : 5126,
            "count" : 19,
            "type" : "VEC3"
        },
        {
            "bufferView" : 15,
            "componentType" : 5126,
            "count" : 19,
            "type" : "VEC4"
        },
        {
            "bufferView" : 16,
            "componentType" : 5126,
            "count" : 19,
            "type" : "VEC3"
        },
        {
            "bufferView" : 17,
            "componentType" : 5126,
            "count" : 19,
            "type" : "VEC3"
        },
        {
            "bufferView" : 18,
            "componentType" : 5126,
            "count" : 19,
            "type" : "VEC4"
        },
        {
            "bufferView" : 19,
            "componentType" : 5126,
            "count" : 19,
            "type" : "VEC3"
        },
        {
            "bufferView" : 20,
            "componentType" : 5126,
            "count" : 19,
            "type" : "VEC3"
        },
        {
            "bufferView" : 21,
            "componentType" : 5126,
            "count" : 19,
            "type" : "VEC4"
        },
        {
            "bufferView" : 22,
            "componentType" : 5126,
            "count" : 19,
            "type" : "VEC3"
        },
        {
            "bufferView" : 23,
            "componentType" : 5126,
            "count" : 19,
            "type" : "VEC3"
        },
        {
            "bufferView" : 24,
            "componentType" : 5126,
            "count" : 19,
            "type" : "VEC4"
        },
        {
            "bufferView" : 25,
            "componentType" : 5126,
            "count" : 19,
            "type" : "VEC3"
        },
        {
            "bufferView" : 26,
            "componentType" : 5126,
            "count" : 19,
            "type" : "VEC3"
        },
        {
            "bufferView" : 27,
            "componentType" : 5126,
            "count" : 19,
            "type" : "VEC4"
        },
        {
            "bufferView" : 28,
            "componentType" : 5126,
            "count" : 19,
            "type" : "VEC3"
        }
    ],
    "bufferViews" : [
        {
            "buffer" : 0,
            "byteLength" : 5136,
            "byteOffset" : 0
        },
        {
            "buffer" : 0,
            "byteLength" : 5136,
            "byteOffset" : 5136
        },
        {
            "buffer" : 0,
            "byteLength" : 3424,
            "byteOffset" : 10272
        },
        {
            "buffer" : 0,
            "byteLength" : 3424,
            "byteOffset" : 13696
        },
        {
            "buffer" : 0,
            "byteLength" : 6848,
            "byteOffset" : 17120
        },
        {
            "buffer" : 0,
            "byteLength" : 5112,
            "byteOffset" : 23968
        },
        {
            "buffer" : 0,
            "byteLength" : 448,
            "byteOffset" : 29080
        },
        {
            "buffer" : 0,
            "byteLength" : 76,
            "byteOffset" : 29528
        },
        {
            "buffer" : 0,
            "byteLength" : 228,
            "byteOffset" : 29604
        },
        {
            "buffer" : 0,
            "byteLength" : 304,
            "byteOffset" : 29832
        },
        {
            "buffer" : 0,
            "byteLength" : 228,
            "byteOffset" : 30136
        },
        {
            "buffer" : 0,
            "byteLength" : 228,
            "byteOffset" : 30364
        },
        {
            "buffer" : 0,
            "byteLength" : 304,
            "byteOffset" : 30592
        },
        {
            "buffer" : 0,
            "byteLength" : 228,
            "byteOffset" : 30896
        },
        {
            "buffer" : 0,
            "byteLength" : 228,
            "byteOffset" : 31124
        },
        {
            "buffer" : 0,
            "byteLength" : 304,
            "byteOffset" : 31352
        },
        {
            "buffer" : 0,
            "byteLength" : 228,
            "byteOffset" : 31656
        },
        {
            "buffer" : 0,
            "byteLength" : 228,
            "byteOffset" : 31884
        },
        {
            "buffer" : 0,
            "byteLength" : 304,
            "byteOffset" : 32112
        },
        {
            "buffer" : 0,
            "byteLength" : 228,
            "byteOffset" : 32416
        },
        {
            "buffer" : 0,
            "byteLength" : 228,
            "byteOffset" : 32644
        },
        {
            "buffer" : 0,
            "byteLength" : 304,
            "byteOffset" : 32872
        },
        {
            "buffer" : 0,
            "byteLength" : 228,
            "byteOffset" : 33176
        },
        {
            "buffer" : 0,
            "byteLength" : 228,
            "byteOffset" : 33404
        },
        {
            "buffer" : 0,
            "byteLength" : 304,
            "byteOffset" : 33632
        },
        {
            "buffer" : 0,
            "byteLength" : 228,
            "byteOffset" : 33936
        },
        {
            "buffer" : 0,
            "byteLength" : 228,
            "byteOffset" : 34164
        },
        {
            "buffer" : 0,
            "byteLength" : 304,
            "byteOffset" : 34392
        },
        {
            "buffer" : 0,
            "byteLength" : 228,
            "byteOffset" : 34696
        }
    ],
    "buffers" : [
        {
            "byteLength" : 34924,
            "uri" : "data:application/octet-stream;base64,"
        }
    ]
}
