{
    "asset" : {
        "generator" : "Khronos glTF Blender I/O v1.3.48",
        "version" : "2.0"
    },
    "scene" : 0,
    "scenes" : [
        {
            "name" : "Scene",
            "nodes" : [
                7,
                8
            ]
        }
    ],
    "nodes" : [
        {
            "name" : "Bone.005",
            "rotation" : [
                0.0013516410253942013,
                -0.00027848384343087673,
                0.0005348477279767394,
                0.999998927116394
            ],
            "scale" : [
                1.0000003576278687,
                0.9999999403953552,
                0.9999998807907104
            ],
            "translation" : [
                -3.1723177418285786e-09,
                0.02398386038839817,
                8.731197709277438e-11
            ]
        },
        {
            "children" : [
                0
            ],
            "name" : "Bone.001",
            "rotation" : [
                -0.008928829804062843,
                -0.00167890137527138,
                -0.003938434645533562,
                0.9999510049819946
            ],
            "scale" : [
                1,
                0.9999997019767761,
                0.9999995231628418
            ],
            "translation" : [
                2.6693652843690074e-10,
                0.023983843624591827,
                -1.3824190403521897e-10
            ]
        },
        {
            "children" : [
                1
            ],
            "name" : "Bone.004",
            "rotation" : [
                0.015027646906673908,
                -0.005734225735068321,
                0.007200826425105333,
                0.9998447299003601
            ],
            "scale" : [
                1.0000001192092896,
                0.9999997019767761,
                0.9999998211860657
            ],
            "translation" : [
                4.2564318736282303e-10,
                0.023983851075172424,
                -9.458711591747715e-11
            ]
        },
        {
            "children" : [
                2
            ],
            "name" : "Bone.002",
            "rotation" : [
                -0.009075193665921688,
                -0.033546432852745056,
                -0.0057146367616951466,
                0.9993796348571777
            ],
            "scale" : [
                1,
                1.000000238418579,
                1.0000005960464478
            ],
            "translation" : [
                -1.3824330569178755e-10,
                0.023983845487236977,
                -9.094921343821838e-11
            ]
        },
        {
            "children" : [
                3
            ],
            "name" : "Bone.003",
            "rotation" : [
                -0.0017735108267515898,
                -0.019592169672250748,
                0.0005068755708634853,
                0.9998064041137695
            ],
            "scale" : [
                1,
                0.9999997615814209,
                0.9999997019767761
            ],
            "translation" : [
                1.8189881545449538e-10,
                0.023983843624591827,
                -2.528393050482691e-10
            ]
        },
        {
            "children" : [
                4
            ],
            "name" : "Bone",
            "rotation" : [
                0.9993270039558411,
                0.03306244686245918,
                0.01576695591211319,
                -0.001948527991771698
            ],
            "scale" : [
                1,
                0.9999999403953552,
                1.0000001192092896
            ],
            "translation" : [
                3.067228681175038e-05,
                -0.013123329728841782,
                -0.0007774411933496594
            ]
        },
        {
            "mesh" : 0,
            "name" : "Cylinder.007",
            "skin" : 0
        },
        {
            "children" : [
                6,
                5
            ],
            "name" : "Armature.011",
            "rotation" : [
                0.01893767900764942,
                -0.7820220589637756,
                0.08598171174526215,
                0.6170008182525635
            ],
            "scale" : [
                0.7622866034507751,
                0.8526684045791626,
                0.7622866630554199
            ],
            "translation" : [
                0.037574730813503265,
                0.07491044700145721,
                0.02230215072631836
            ]
        },
        {
            "mesh" : 1,
            "name" : "path_original.001",
            "rotation" : [
                0.5663641095161438,
                -0.5395821332931519,
                -0.37548714876174927,
                0.49708372354507446
            ],
            "scale" : [
                0.21316975355148315,
                0.21316970884799957,
                0.09649203717708588
            ],
            "translation" : [
                0.023501839488744736,
                -0.017358675599098206,
                0.03284064307808876
            ]
        }
    ],
    "animations" : [
        {
            "channels" : [
                {
                    "sampler" : 0,
                    "target" : {
                        "node" : 5,
                        "path" : "translation"
                    }
                },
                {
                    "sampler" : 1,
                    "target" : {
                        "node" : 5,
                        "path" : "rotation"
                    }
                },
                {
                    "sampler" : 2,
                    "target" : {
                        "node" : 5,
                        "path" : "scale"
                    }
                },
                {
                    "sampler" : 3,
                    "target" : {
                        "node" : 4,
                        "path" : "translation"
                    }
                },
                {
                    "sampler" : 4,
                    "target" : {
                        "node" : 4,
                        "path" : "rotation"
                    }
                },
                {
                    "sampler" : 5,
                    "target" : {
                        "node" : 4,
                        "path" : "scale"
                    }
                },
                {
                    "sampler" : 6,
                    "target" : {
                        "node" : 3,
                        "path" : "translation"
                    }
                },
                {
                    "sampler" : 7,
                    "target" : {
                        "node" : 3,
                        "path" : "rotation"
                    }
                },
                {
                    "sampler" : 8,
                    "target" : {
                        "node" : 3,
                        "path" : "scale"
                    }
                },
                {
                    "sampler" : 9,
                    "target" : {
                        "node" : 2,
                        "path" : "translation"
                    }
                },
                {
                    "sampler" : 10,
                    "target" : {
                        "node" : 2,
                        "path" : "rotation"
                    }
                },
                {
                    "sampler" : 11,
                    "target" : {
                        "node" : 2,
                        "path" : "scale"
                    }
                },
                {
                    "sampler" : 12,
                    "target" : {
                        "node" : 1,
                        "path" : "translation"
                    }
                },
                {
                    "sampler" : 13,
                    "target" : {
                        "node" : 1,
                        "path" : "rotation"
                    }
                },
                {
                    "sampler" : 14,
                    "target" : {
                        "node" : 1,
                        "path" : "scale"
                    }
                },
                {
                    "sampler" : 15,
                    "target" : {
                        "node" : 0,
                        "path" : "translation"
                    }
                },
                {
                    "sampler" : 16,
                    "target" : {
                        "node" : 0,
                        "path" : "rotation"
                    }
                },
                {
                    "sampler" : 17,
                    "target" : {
                        "node" : 0,
                        "path" : "scale"
                    }
                }
            ],
            "name" : "Animation",
            "samplers" : [
                {
                    "input" : 11,
                    "interpolation" : "LINEAR",
                    "output" : 12
                },
                {
                    "input" : 11,
                    "interpolation" : "LINEAR",
                    "output" : 13
                },
                {
                    "input" : 11,
                    "interpolation" : "LINEAR",
                    "output" : 14
                },
                {
                    "input" : 11,
                    "interpolation" : "LINEAR",
                    "output" : 15
                },
                {
                    "input" : 11,
                    "interpolation" : "LINEAR",
                    "output" : 16
                },
                {
                    "input" : 11,
                    "interpolation" : "LINEAR",
                    "output" : 17
                },
                {
                    "input" : 11,
                    "interpolation" : "LINEAR",
                    "output" : 18
                },
                {
                    "input" : 11,
                    "interpolation" : "LINEAR",
                    "output" : 19
                },
                {
                    "input" : 11,
                    "interpolation" : "LINEAR",
                    "output" : 20
                },
                {
                    "input" : 11,
                    "interpolation" : "LINEAR",
                    "output" : 21
                },
                {
                    "input" : 11,
                    "interpolation" : "LINEAR",
                    "output" : 22
                },
                {
                    "input" : 11,
                    "interpolation" : "LINEAR",
                    "output" : 23
                },
                {
                    "input" : 11,
                    "interpolation" : "LINEAR",
                    "output" : 24
                },
                {
                    "input" : 11,
                    "interpolation" : "LINEAR",
                    "output" : 25
                },
                {
                    "input" : 11,
                    "interpolation" : "LINEAR",
                    "output" : 26
                },
                {
                    "input" : 11,
                    "interpolation" : "LINEAR",
                    "output" : 27
                },
                {
                    "input" : 11,
                    "interpolation" : "LINEAR",
                    "output" : 28
                },
                {
                    "input" : 11,
                    "interpolation" : "LINEAR",
                    "output" : 29
                }
            ]
        }
    ],
    "materials" : [
        {
            "doubleSided" : true,
            "emissiveFactor" : [
                0.3592430055141449,
                0.0054410002194345,
                0.7304610013961792
            ],
            "name" : "Material.006",
            "pbrMetallicRoughness" : {
                "baseColorFactor" : [
                    0.3592434227466583,
                    0.005440710578113794,
                    0.730461061000824,
                    1
                ],
                "metallicFactor" : 0,
                "roughnessFactor" : 0.5
            }
        },
        {
            "doubleSided" : true,
            "emissiveFactor" : [
                0.3592430055141449,
                0.0054410002194345,
                0.7304610013961792
            ],
            "name" : "Material.004",
            "pbrMetallicRoughness" : {
                "baseColorFactor" : [
                    0.3592430055141449,
                    0.0054410002194345,
                    0.7304610013961792,
                    1
                ],
                "metallicFactor" : 0,
                "roughnessFactor" : 0.5
            }
        }
    ],
    "meshes" : [
        {
            "name" : "Cylinder.012",
            "primitives" : [
                {
                    "attributes" : {
                        "POSITION" : 0,
                        "NORMAL" : 1,
                        "TEXCOORD_0" : 2,
                        "JOINTS_0" : 3,
                        "WEIGHTS_0" : 4
                    },
                    "indices" : 5,
                    "material" : 0
                }
            ]
        },
        {
            "name" : "BezierCircle.013",
            "primitives" : [
                {
                    "attributes" : {
                        "POSITION" : 7,
                        "NORMAL" : 8,
                        "TEXCOORD_0" : 9
                    },
                    "indices" : 10,
                    "material" : 1
                }
            ]
        }
    ],
    "skins" : [
        {
            "inverseBindMatrices" : 6,
            "joints" : [
                5,
                4,
                3,
                2,
                1,
                0
            ],
            "name" : "Armature.011"
        }
    ],
    "accessors" : [
        {
            "bufferView" : 0,
            "componentType" : 5126,
            "count" : 328,
            "max" : [
                0.060794636607170105,
                0.11800789088010788,
                0.050362322479486465
            ],
            "min" : [
                0.025148363783955574,
                -0.001245482242666185,
                0.014772677794098854
            ],
            "type" : "VEC3"
        },
        {
            "bufferView" : 1,
            "componentType" : 5126,
            "count" : 328,
            "type" : "VEC3"
        },
        {
            "bufferView" : 2,
            "componentType" : 5126,
            "count" : 328,
            "type" : "VEC2"
        },
        {
            "bufferView" : 3,
            "componentType" : 5123,
            "count" : 328,
            "type" : "VEC4"
        },
        {
            "bufferView" : 4,
            "componentType" : 5126,
            "count" : 328,
            "type" : "VEC4"
        },
        {
            "bufferView" : 5,
            "componentType" : 5123,
            "count" : 1536,
            "type" : "SCALAR"
        },
        {
            "bufferView" : 6,
            "componentType" : 5126,
            "count" : 6,
            "type" : "MAT4"
        },
        {
            "bufferView" : 7,
            "componentType" : 5126,
            "count" : 793,
            "max" : [
                0.9199339151382446,
                0.07275710999965668,
                0.9319778680801392
            ],
            "min" : [
                -0.8397207856178284,
                -0.037385426461696625,
                -0.3726026117801666
            ],
            "type" : "VEC3"
        },
        {
            "bufferView" : 8,
            "componentType" : 5126,
            "count" : 793,
            "type" : "VEC3"
        },
        {
            "bufferView" : 9,
            "componentType" : 5126,
            "count" : 793,
            "type" : "VEC2"
        },
        {
            "bufferView" : 10,
            "componentType" : 5123,
            "count" : 4320,
            "type" : "SCALAR"
        },
        {
            "bufferView" : 11,
            "componentType" : 5126,
            "count" : 19,
            "max" : [
                0.7916666666666666
            ],
            "min" : [
                0.041666666666666664
            ],
            "type" : "SCALAR"
        },
        {
            "bufferView" : 12,
            "componentType" : 5126,
            "count" : 19,
            "type" : "VEC3"
        },
        {
            "bufferView" : 13,
            "componentType" : 5126,
            "count" : 19,
            "type" : "VEC4"
        },
        {
            "bufferView" : 14,
            "componentType" : 5126,
            "count" : 19,
            "type" : "VEC3"
        },
        {
            "bufferView" : 15,
            "componentType" : 5126,
            "count" : 19,
            "type" : "VEC3"
        },
        {
            "bufferView" : 16,
            "componentType" : 5126,
            "count" : 19,
            "type" : "VEC4"
        },
        {
            "bufferView" : 17,
            "componentType" : 5126,
            "count" : 19,
            "type" : "VEC3"
        },
        {
            "bufferView" : 18,
            "componentType" : 5126,
            "count" : 19,
            "type" : "VEC3"
        },
        {
            "bufferView" : 19,
            "componentType" : 5126,
            "count" : 19,
            "type" : "VEC4"
        },
        {
            "bufferView" : 20,
            "componentType" : 5126,
            "count" : 19,
            "type" : "VEC3"
        },
        {
            "bufferView" : 21,
            "componentType" : 5126,
            "count" : 19,
            "type" : "VEC3"
        },
        {
            "bufferView" : 22,
            "componentType" : 5126,
            "count" : 19,
            "type" : "VEC4"
        },
        {
            "bufferView" : 23,
            "componentType" : 5126,
            "count" : 19,
            "type" : "VEC3"
        },
        {
            "bufferView" : 24,
            "componentType" : 5126,
            "count" : 19,
            "type" : "VEC3"
        },
        {
            "bufferView" : 25,
            "componentType" : 5126,
            "count" : 19,
            "type" : "VEC4"
        },
        {
            "bufferView" : 26,
            "componentType" : 5126,
            "count" : 19,
            "type" : "VEC3"
        },
        {
            "bufferView" : 27,
            "componentType" : 5126,
            "count" : 19,
            "type" : "VEC3"
        },
        {
            "bufferView" : 28,
            "componentType" : 5126,
            "count" : 19,
            "type" : "VEC4"
        },
        {
            "bufferView" : 29,
            "componentType" : 5126,
            "count" : 19,
            "type" : "VEC3"
        }
    ],
    "bufferViews" : [
        {
            "buffer" : 0,
            "byteLength" : 3936,
            "byteOffset" : 0
        },
        {
            "buffer" : 0,
            "byteLength" : 3936,
            "byteOffset" : 3936
        },
        {
            "buffer" : 0,
            "byteLength" : 2624,
            "byteOffset" : 7872
        },
        {
            "buffer" : 0,
            "byteLength" : 2624,
            "byteOffset" : 10496
        },
        {
            "buffer" : 0,
            "byteLength" : 5248,
            "byteOffset" : 13120
        },
        {
            "buffer" : 0,
            "byteLength" : 3072,
            "byteOffset" : 18368
        },
        {
            "buffer" : 0,
            "byteLength" : 384,
            "byteOffset" : 21440
        },
        {
            "buffer" : 0,
            "byteLength" : 9516,
            "byteOffset" : 21824
        },
        {
            "buffer" : 0,
            "byteLength" : 9516,
            "byteOffset" : 31340
        },
        {
            "buffer" : 0,
            "byteLength" : 6344,
            "byteOffset" : 40856
        },
        {
            "buffer" : 0,
            "byteLength" : 8640,
            "byteOffset" : 47200
        },
        {
            "buffer" : 0,
            "byteLength" : 76,
            "byteOffset" : 55840
        },
        {
            "buffer" : 0,
            "byteLength" : 228,
            "byteOffset" : 55916
        },
        {
            "buffer" : 0,
            "byteLength" : 304,
            "byteOffset" : 56144
        },
        {
            "buffer" : 0,
            "byteLength" : 228,
            "byteOffset" : 56448
        },
        {
            "buffer" : 0,
            "byteLength" : 228,
            "byteOffset" : 56676
        },
        {
            "buffer" : 0,
            "byteLength" : 304,
            "byteOffset" : 56904
        },
        {
            "buffer" : 0,
            "byteLength" : 228,
            "byteOffset" : 57208
        },
        {
            "buffer" : 0,
            "byteLength" : 228,
            "byteOffset" : 57436
        },
        {
            "buffer" : 0,
            "byteLength" : 304,
            "byteOffset" : 57664
        },
        {
            "buffer" : 0,
            "byteLength" : 228,
            "byteOffset" : 57968
        },
        {
            "buffer" : 0,
            "byteLength" : 228,
            "byteOffset" : 58196
        },
        {
            "buffer" : 0,
            "byteLength" : 304,
            "byteOffset" : 58424
        },
        {
            "buffer" : 0,
            "byteLength" : 228,
            "byteOffset" : 58728
        },
        {
            "buffer" : 0,
            "byteLength" : 228,
            "byteOffset" : 58956
        },
        {
            "buffer" : 0,
            "byteLength" : 304,
            "byteOffset" : 59184
        },
        {
            "buffer" : 0,
            "byteLength" : 228,
            "byteOffset" : 59488
        },
        {
            "buffer" : 0,
            "byteLength" : 228,
            "byteOffset" : 59716
        },
        {
            "buffer" : 0,
            "byteLength" : 304,
            "byteOffset" : 59944
        },
        {
            "buffer" : 0,
            "byteLength" : 228,
            "byteOffset" : 60248
        }
    ],
    "buffers" : [
        {
            "byteLength" : 60476,
            "uri" : "data:application/octet-stream;base64,"
        }
    ]
}
