{
    "asset" : {
        "generator" : "Khronos glTF Blender I/O v1.3.48",
        "version" : "2.0"
    },
    "scene" : 0,
    "scenes" : [
        {
            "name" : "Scene",
            "nodes" : [
                7
            ]
        }
    ],
    "nodes" : [
        {
            "name" : "Bone.005",
            "rotation" : [
                -0.0006534216809086502,
                -5.150214974491973e-07,
                -3.875047332257964e-05,
                0.9999998807907104
            ],
            "scale" : [
                1.0000003576278687,
                1.0000001192092896,
                0.9999999403953552
            ],
            "translation" : [
                0,
                0.02398383989930153,
                2.3283064365386963e-10
            ]
        },
        {
            "children" : [
                0
            ],
            "name" : "Bone.001",
            "rotation" : [
                -0.0007523692911490798,
                -3.048859980481211e-06,
                -4.721434015664272e-05,
                0.9999998211860657
            ],
            "scale" : [
                1.0000003576278687,
                0.9999998211860657,
                1
            ],
            "translation" : [
                -6.984919309616089e-10,
                0.023983843624591827,
                0
            ]
        },
        {
            "children" : [
                1
            ],
            "name" : "Bone.004",
            "rotation" : [
                0.001957245171070099,
                -9.899978067551274e-06,
                7.2715942224022e-05,
                0.9999980926513672
            ],
            "scale" : [
                1.0000001192092896,
                0.9999998211860657,
                0.9999999403953552
            ],
            "translation" : [
                4.656612873077393e-10,
                0.023983845487236977,
                4.656612873077393e-10
            ]
        },
        {
            "children" : [
                2
            ],
            "name" : "Bone.002",
            "rotation" : [
                0.005088678561151028,
                -2.618083090055734e-05,
                0.00048399411025457084,
                0.9999869465827942
            ],
            "scale" : [
                1.0000001192092896,
                1.0000001192092896,
                1.0000004768371582
            ],
            "translation" : [
                0,
                0.023983843624591827,
                -2.3283064365386963e-10
            ]
        },
        {
            "children" : [
                3
            ],
            "name" : "Bone.003",
            "rotation" : [
                -0.014847343787550926,
                4.2413939809193835e-05,
                -0.0011604225728660822,
                0.9998891353607178
            ],
            "scale" : [
                0.9999999403953552,
                0.9999999403953552,
                0.9999998211860657
            ],
            "translation" : [
                0,
                0.02398383431136608,
                0
            ]
        },
        {
            "children" : [
                4
            ],
            "name" : "Bone",
            "rotation" : [
                -0.9990903735160828,
                -0.03272942081093788,
                -0.008992732502520084,
                0.025813177227973938
            ],
            "scale" : [
                0.9999997615814209,
                1,
                1
            ],
            "translation" : [
                8.43508169054985e-05,
                0.05161835253238678,
                0.004552934318780899
            ]
        },
        {
            "mesh" : 0,
            "name" : "Cylinder.007",
            "skin" : 0
        },
        {
            "children" : [
                6,
                5
            ],
            "name" : "Armature.011",
            "rotation" : [
                0.01893767900764942,
                -0.7820220589637756,
                0.08598171174526215,
                0.6170008182525635
            ],
            "scale" : [
                0.7622866034507751,
                0.8526684045791626,
                0.7622866630554199
            ],
            "translation" : [
                0.037574730813503265,
                0.07491044700145721,
                0.02230215072631836
            ]
        }
    ],
    "animations" : [
        {
            "channels" : [
                {
                    "sampler" : 0,
                    "target" : {
                        "node" : 5,
                        "path" : "translation"
                    }
                },
                {
                    "sampler" : 1,
                    "target" : {
                        "node" : 5,
                        "path" : "rotation"
                    }
                },
                {
                    "sampler" : 2,
                    "target" : {
                        "node" : 5,
                        "path" : "scale"
                    }
                },
                {
                    "sampler" : 3,
                    "target" : {
                        "node" : 4,
                        "path" : "translation"
                    }
                },
                {
                    "sampler" : 4,
                    "target" : {
                        "node" : 4,
                        "path" : "rotation"
                    }
                },
                {
                    "sampler" : 5,
                    "target" : {
                        "node" : 4,
                        "path" : "scale"
                    }
                },
                {
                    "sampler" : 6,
                    "target" : {
                        "node" : 3,
                        "path" : "translation"
                    }
                },
                {
                    "sampler" : 7,
                    "target" : {
                        "node" : 3,
                        "path" : "rotation"
                    }
                },
                {
                    "sampler" : 8,
                    "target" : {
                        "node" : 3,
                        "path" : "scale"
                    }
                },
                {
                    "sampler" : 9,
                    "target" : {
                        "node" : 2,
                        "path" : "translation"
                    }
                },
                {
                    "sampler" : 10,
                    "target" : {
                        "node" : 2,
                        "path" : "rotation"
                    }
                },
                {
                    "sampler" : 11,
                    "target" : {
                        "node" : 2,
                        "path" : "scale"
                    }
                },
                {
                    "sampler" : 12,
                    "target" : {
                        "node" : 1,
                        "path" : "translation"
                    }
                },
                {
                    "sampler" : 13,
                    "target" : {
                        "node" : 1,
                        "path" : "rotation"
                    }
                },
                {
                    "sampler" : 14,
                    "target" : {
                        "node" : 1,
                        "path" : "scale"
                    }
                },
                {
                    "sampler" : 15,
                    "target" : {
                        "node" : 0,
                        "path" : "translation"
                    }
                },
                {
                    "sampler" : 16,
                    "target" : {
                        "node" : 0,
                        "path" : "rotation"
                    }
                },
                {
                    "sampler" : 17,
                    "target" : {
                        "node" : 0,
                        "path" : "scale"
                    }
                }
            ],
            "name" : "Animation",
            "samplers" : [
                {
                    "input" : 7,
                    "interpolation" : "LINEAR",
                    "output" : 8
                },
                {
                    "input" : 7,
                    "interpolation" : "LINEAR",
                    "output" : 9
                },
                {
                    "input" : 7,
                    "interpolation" : "LINEAR",
                    "output" : 10
                },
                {
                    "input" : 7,
                    "interpolation" : "LINEAR",
                    "output" : 11
                },
                {
                    "input" : 7,
                    "interpolation" : "LINEAR",
                    "output" : 12
                },
                {
                    "input" : 7,
                    "interpolation" : "LINEAR",
                    "output" : 13
                },
                {
                    "input" : 7,
                    "interpolation" : "LINEAR",
                    "output" : 14
                },
                {
                    "input" : 7,
                    "interpolation" : "LINEAR",
                    "output" : 15
                },
                {
                    "input" : 7,
                    "interpolation" : "LINEAR",
                    "output" : 16
                },
                {
                    "input" : 7,
                    "interpolation" : "LINEAR",
                    "output" : 17
                },
                {
                    "input" : 7,
                    "interpolation" : "LINEAR",
                    "output" : 18
                },
                {
                    "input" : 7,
                    "interpolation" : "LINEAR",
                    "output" : 19
                },
                {
                    "input" : 7,
                    "interpolation" : "LINEAR",
                    "output" : 20
                },
                {
                    "input" : 7,
                    "interpolation" : "LINEAR",
                    "output" : 21
                },
                {
                    "input" : 7,
                    "interpolation" : "LINEAR",
                    "output" : 22
                },
                {
                    "input" : 7,
                    "interpolation" : "LINEAR",
                    "output" : 23
                },
                {
                    "input" : 7,
                    "interpolation" : "LINEAR",
                    "output" : 24
                },
                {
                    "input" : 7,
                    "interpolation" : "LINEAR",
                    "output" : 25
                }
            ]
        }
    ],
    "materials" : [
        {
            "doubleSided" : true,
            "emissiveFactor" : [
                0.3592430055141449,
                0.0054410002194345,
                0.7304610013961792
            ],
            "name" : "Material.006",
            "pbrMetallicRoughness" : {
                "baseColorFactor" : [
                    0.3592434227466583,
                    0.005440710578113794,
                    0.730461061000824,
                    1
                ],
                "metallicFactor" : 0,
                "roughnessFactor" : 0.5
            }
        }
    ],
    "meshes" : [
        {
            "name" : "Cylinder.012",
            "primitives" : [
                {
                    "attributes" : {
                        "POSITION" : 0,
                        "NORMAL" : 1,
                        "TEXCOORD_0" : 2,
                        "JOINTS_0" : 3,
                        "WEIGHTS_0" : 4
                    },
                    "indices" : 5,
                    "material" : 0
                }
            ]
        }
    ],
    "skins" : [
        {
            "inverseBindMatrices" : 6,
            "joints" : [
                5,
                4,
                3,
                2,
                1,
                0
            ],
            "name" : "Armature.011"
        }
    ],
    "accessors" : [
        {
            "bufferView" : 0,
            "componentType" : 5126,
            "count" : 328,
            "max" : [
                0.0509849488735199,
                0.19602397084236145,
                0.03660326823592186
            ],
            "min" : [
                0.015067553147673607,
                0.07491044700145721,
                0.0005536543903872371
            ],
            "type" : "VEC3"
        },
        {
            "bufferView" : 1,
            "componentType" : 5126,
            "count" : 328,
            "type" : "VEC3"
        },
        {
            "bufferView" : 2,
            "componentType" : 5126,
            "count" : 328,
            "type" : "VEC2"
        },
        {
            "bufferView" : 3,
            "componentType" : 5123,
            "count" : 328,
            "type" : "VEC4"
        },
        {
            "bufferView" : 4,
            "componentType" : 5126,
            "count" : 328,
            "type" : "VEC4"
        },
        {
            "bufferView" : 5,
            "componentType" : 5123,
            "count" : 1536,
            "type" : "SCALAR"
        },
        {
            "bufferView" : 6,
            "componentType" : 5126,
            "count" : 6,
            "type" : "MAT4"
        },
        {
            "bufferView" : 7,
            "componentType" : 5126,
            "count" : 19,
            "max" : [
                0.7916666666666666
            ],
            "min" : [
                0.041666666666666664
            ],
            "type" : "SCALAR"
        },
        {
            "bufferView" : 8,
            "componentType" : 5126,
            "count" : 19,
            "type" : "VEC3"
        },
        {
            "bufferView" : 9,
            "componentType" : 5126,
            "count" : 19,
            "type" : "VEC4"
        },
        {
            "bufferView" : 10,
            "componentType" : 5126,
            "count" : 19,
            "type" : "VEC3"
        },
        {
            "bufferView" : 11,
            "componentType" : 5126,
            "count" : 19,
            "type" : "VEC3"
        },
        {
            "bufferView" : 12,
            "componentType" : 5126,
            "count" : 19,
            "type" : "VEC4"
        },
        {
            "bufferView" : 13,
            "componentType" : 5126,
            "count" : 19,
            "type" : "VEC3"
        },
        {
            "bufferView" : 14,
            "componentType" : 5126,
            "count" : 19,
            "type" : "VEC3"
        },
        {
            "bufferView" : 15,
            "componentType" : 5126,
            "count" : 19,
            "type" : "VEC4"
        },
        {
            "bufferView" : 16,
            "componentType" : 5126,
            "count" : 19,
            "type" : "VEC3"
        },
        {
            "bufferView" : 17,
            "componentType" : 5126,
            "count" : 19,
            "type" : "VEC3"
        },
        {
            "bufferView" : 18,
            "componentType" : 5126,
            "count" : 19,
            "type" : "VEC4"
        },
        {
            "bufferView" : 19,
            "componentType" : 5126,
            "count" : 19,
            "type" : "VEC3"
        },
        {
            "bufferView" : 20,
            "componentType" : 5126,
            "count" : 19,
            "type" : "VEC3"
        },
        {
            "bufferView" : 21,
            "componentType" : 5126,
            "count" : 19,
            "type" : "VEC4"
        },
        {
            "bufferView" : 22,
            "componentType" : 5126,
            "count" : 19,
            "type" : "VEC3"
        },
        {
            "bufferView" : 23,
            "componentType" : 5126,
            "count" : 19,
            "type" : "VEC3"
        },
        {
            "bufferView" : 24,
            "componentType" : 5126,
            "count" : 19,
            "type" : "VEC4"
        },
        {
            "bufferView" : 25,
            "componentType" : 5126,
            "count" : 19,
            "type" : "VEC3"
        }
    ],
    "bufferViews" : [
        {
            "buffer" : 0,
            "byteLength" : 3936,
            "byteOffset" : 0
        },
        {
            "buffer" : 0,
            "byteLength" : 3936,
            "byteOffset" : 3936
        },
        {
            "buffer" : 0,
            "byteLength" : 2624,
            "byteOffset" : 7872
        },
        {
            "buffer" : 0,
            "byteLength" : 2624,
            "byteOffset" : 10496
        },
        {
            "buffer" : 0,
            "byteLength" : 5248,
            "byteOffset" : 13120
        },
        {
            "buffer" : 0,
            "byteLength" : 3072,
            "byteOffset" : 18368
        },
        {
            "buffer" : 0,
            "byteLength" : 384,
            "byteOffset" : 21440
        },
        {
            "buffer" : 0,
            "byteLength" : 76,
            "byteOffset" : 21824
        },
        {
            "buffer" : 0,
            "byteLength" : 228,
            "byteOffset" : 21900
        },
        {
            "buffer" : 0,
            "byteLength" : 304,
            "byteOffset" : 22128
        },
        {
            "buffer" : 0,
            "byteLength" : 228,
            "byteOffset" : 22432
        },
        {
            "buffer" : 0,
            "byteLength" : 228,
            "byteOffset" : 22660
        },
        {
            "buffer" : 0,
            "byteLength" : 304,
            "byteOffset" : 22888
        },
        {
            "buffer" : 0,
            "byteLength" : 228,
            "byteOffset" : 23192
        },
        {
            "buffer" : 0,
            "byteLength" : 228,
            "byteOffset" : 23420
        },
        {
            "buffer" : 0,
            "byteLength" : 304,
            "byteOffset" : 23648
        },
        {
            "buffer" : 0,
            "byteLength" : 228,
            "byteOffset" : 23952
        },
        {
            "buffer" : 0,
            "byteLength" : 228,
            "byteOffset" : 24180
        },
        {
            "buffer" : 0,
            "byteLength" : 304,
            "byteOffset" : 24408
        },
        {
            "buffer" : 0,
            "byteLength" : 228,
            "byteOffset" : 24712
        },
        {
            "buffer" : 0,
            "byteLength" : 228,
            "byteOffset" : 24940
        },
        {
            "buffer" : 0,
            "byteLength" : 304,
            "byteOffset" : 25168
        },
        {
            "buffer" : 0,
            "byteLength" : 228,
            "byteOffset" : 25472
        },
        {
            "buffer" : 0,
            "byteLength" : 228,
            "byteOffset" : 25700
        },
        {
            "buffer" : 0,
            "byteLength" : 304,
            "byteOffset" : 25928
        },
        {
            "buffer" : 0,
            "byteLength" : 228,
            "byteOffset" : 26232
        }
    ],
    "buffers" : [
        {
            "byteLength" : 26460,
            "uri" : "data:application/octet-stream;base64,"
        }
    ]
}
