{
    "asset" : {
        "generator" : "Khronos glTF Blender I/O v1.3.48",
        "version" : "2.0"
    },
    "scene" : 0,
    "scenes" : [
        {
            "name" : "Scene",
            "nodes" : [
                1,
                2,
                3,
                4,
                5,
                6,
                7,
                8
            ]
        }
    ],
    "nodes" : [
        {
            "mesh" : 0,
            "name" : "labels.002",
            "rotation" : [
                0,
                0,
                -1,
                -1.6292068494294654e-07
            ],
            "translation" : [
                0,
                -0.0010000001639127731,
                0
            ]
        },
        {
            "children" : [
                0
            ],
            "mesh" : 1,
            "name" : "labels",
            "rotation" : [
                0.5,
                0.5,
                -0.5000000596046448,
                0.4999999403953552
            ],
            "translation" : [
                0.012694977223873138,
                0.08480589091777802,
                -0.25137782096862793
            ]
        },
        {
            "mesh" : 2,
            "name" : "labels.003",
            "rotation" : [
                0.5,
                0.5,
                -0.5000000596046448,
                0.4999999403953552
            ],
            "translation" : [
                0.011694954708218575,
                -0.04389680549502373,
                0.39305737614631653
            ]
        },
        {
            "mesh" : 3,
            "name" : "labels.001",
            "rotation" : [
                -0.5,
                0.5,
                -0.5,
                -0.5
            ],
            "translation" : [
                -0.08156502991914749,
                0.13377659022808075,
                0.08312501758337021
            ]
        },
        {
            "mesh" : 4,
            "name" : "labels.006",
            "rotation" : [
                -0.5,
                0.5,
                -0.5,
                -0.5
            ],
            "translation" : [
                0.01169496588408947,
                -0.2548474371433258,
                0.41946473717689514
            ]
        },
        {
            "mesh" : 5,
            "name" : "labels.004",
            "rotation" : [
                -0.5000001788139343,
                0.49999985098838806,
                -0.49999991059303284,
                -0.5000000596046448
            ],
            "translation" : [
                0.010694954544305801,
                -0.04389680549502373,
                0.39305737614631653
            ]
        },
        {
            "mesh" : 6,
            "name" : "labels.005",
            "rotation" : [
                -0.4999999403953552,
                -0.5000000596046448,
                0.5000001192092896,
                -0.49999991059303284
            ],
            "translation" : [
                -0.08256503194570541,
                0.13377659022808075,
                0.08312501758337021
            ]
        },
        {
            "mesh" : 7,
            "name" : "labels.007",
            "rotation" : [
                -0.4999999403953552,
                -0.5000000596046448,
                0.5000001192092896,
                -0.49999991059303284
            ],
            "translation" : [
                0.010694965720176697,
                -0.2548474371433258,
                0.41946473717689514
            ]
        },
        {
            "mesh" : 8,
            "name" : "labels.012",
            "rotation" : [
                -0.5,
                0.5,
                -0.5,
                -0.5
            ],
            "translation" : [
                -0.08156502991914749,
                0.13377659022808075,
                0.08312501758337021
            ]
        }
    ],
    "animations" : [
        {
            "channels" : [
                {
                    "sampler" : 0,
                    "target" : {
                        "node" : 8,
                        "path" : "weights"
                    }
                }
            ],
            "name" : "KeyAction",
            "samplers" : [
                {
                    "input" : 37,
                    "interpolation" : "LINEAR",
                    "output" : 38
                }
            ]
        }
    ],
    "materials" : [
        {
            "alphaMode" : "BLEND",
            "doubleSided" : true,
            "emissiveFactor" : [
                1,
                1,
                1
            ],
            "emissiveTexture" : {
                "index" : 0,
                "texCoord" : 0
            },
            "name" : "labels",
            "pbrMetallicRoughness" : {}
        },
        {
            "doubleSided" : true,
            "emissiveFactor" : [
                0,
                0,
                0
            ],
            "name" : "Material.003",
            "pbrMetallicRoughness" : {}
        },
        {
            "doubleSided" : true,
            "emissiveFactor" : [
                0,
                0,
                0
            ],
            "name" : "Material.001",
            "pbrMetallicRoughness" : {}
        }
    ],
    "meshes" : [
        {
            "name" : "labels.019",
            "primitives" : [
                {
                    "attributes" : {
                        "POSITION" : 0,
                        "NORMAL" : 1,
                        "TEXCOORD_0" : 2
                    },
                    "indices" : 3,
                    "material" : 0
                }
            ]
        },
        {
            "name" : "labels",
            "primitives" : [
                {
                    "attributes" : {
                        "POSITION" : 4,
                        "NORMAL" : 5,
                        "TEXCOORD_0" : 6
                    },
                    "indices" : 3,
                    "material" : 0
                }
            ]
        },
        {
            "name" : "labels.005",
            "primitives" : [
                {
                    "attributes" : {
                        "POSITION" : 7,
                        "NORMAL" : 8,
                        "TEXCOORD_0" : 9
                    },
                    "indices" : 3,
                    "material" : 0
                }
            ]
        },
        {
            "name" : "labels.011",
            "primitives" : [
                {
                    "attributes" : {
                        "POSITION" : 10,
                        "NORMAL" : 11,
                        "TEXCOORD_0" : 12
                    },
                    "indices" : 3,
                    "material" : 0
                }
            ]
        },
        {
            "name" : "labels.014",
            "primitives" : [
                {
                    "attributes" : {
                        "POSITION" : 13,
                        "NORMAL" : 14,
                        "TEXCOORD_0" : 15
                    },
                    "indices" : 3,
                    "material" : 0
                }
            ]
        },
        {
            "name" : "labels.020",
            "primitives" : [
                {
                    "attributes" : {
                        "POSITION" : 16,
                        "NORMAL" : 17,
                        "TEXCOORD_0" : 18
                    },
                    "indices" : 3,
                    "material" : 0
                }
            ]
        },
        {
            "name" : "labels.021",
            "primitives" : [
                {
                    "attributes" : {
                        "POSITION" : 19,
                        "NORMAL" : 20,
                        "TEXCOORD_0" : 21
                    },
                    "indices" : 3,
                    "material" : 0
                }
            ]
        },
        {
            "name" : "labels.022",
            "primitives" : [
                {
                    "attributes" : {
                        "POSITION" : 22,
                        "NORMAL" : 23,
                        "TEXCOORD_0" : 24
                    },
                    "indices" : 3,
                    "material" : 0
                }
            ]
        },
        {
            "extras" : {
                "targetNames" : [
                    "Key 1"
                ]
            },
            "name" : "labels.027",
            "primitives" : [
                {
                    "attributes" : {
                        "POSITION" : 25,
                        "NORMAL" : 26,
                        "TEXCOORD_0" : 27
                    },
                    "indices" : 28,
                    "material" : 1,
                    "targets" : [
                        {
                            "POSITION" : 29,
                            "NORMAL" : 30
                        }
                    ]
                },
                {
                    "attributes" : {
                        "POSITION" : 31,
                        "NORMAL" : 32,
                        "TEXCOORD_0" : 33
                    },
                    "indices" : 34,
                    "material" : 2,
                    "targets" : [
                        {
                            "POSITION" : 35,
                            "NORMAL" : 36
                        }
                    ]
                }
            ],
            "weights" : [
                0
            ]
        }
    ],
    "textures" : [
        {
            "source" : 0
        }
    ],
    "images" : [
        {
            "bufferView" : 4,
            "mimeType" : "image/png",
            "name" : "labels 2"
        }
    ],
    "accessors" : [
        {
            "bufferView" : 0,
            "componentType" : 5126,
            "count" : 4,
            "max" : [
                0.13461914658546448,
                0,
                0.025917427614331245
            ],
            "min" : [
                -0.13461914658546448,
                0,
                -0.025917435064911842
            ],
            "type" : "VEC3"
        },
        {
            "bufferView" : 1,
            "componentType" : 5126,
            "count" : 4,
            "type" : "VEC3"
        },
        {
            "bufferView" : 2,
            "componentType" : 5126,
            "count" : 4,
            "type" : "VEC2"
        },
        {
            "bufferView" : 3,
            "componentType" : 5123,
            "count" : 6,
            "type" : "SCALAR"
        },
        {
            "bufferView" : 5,
            "componentType" : 5126,
            "count" : 4,
            "max" : [
                0.13461914658546448,
                0,
                0.025917427614331245
            ],
            "min" : [
                -0.13461914658546448,
                0,
                -0.025917435064911842
            ],
            "type" : "VEC3"
        },
        {
            "bufferView" : 6,
            "componentType" : 5126,
            "count" : 4,
            "type" : "VEC3"
        },
        {
            "bufferView" : 7,
            "componentType" : 5126,
            "count" : 4,
            "type" : "VEC2"
        },
        {
            "bufferView" : 8,
            "componentType" : 5126,
            "count" : 4,
            "max" : [
                0.12391825020313263,
                0,
                0.025347966700792313
            ],
            "min" : [
                -0.12391825020313263,
                0,
                -0.025347966700792313
            ],
            "type" : "VEC3"
        },
        {
            "bufferView" : 9,
            "componentType" : 5126,
            "count" : 4,
            "type" : "VEC3"
        },
        {
            "bufferView" : 10,
            "componentType" : 5126,
            "count" : 4,
            "type" : "VEC2"
        },
        {
            "bufferView" : 11,
            "componentType" : 5126,
            "count" : 4,
            "max" : [
                0.11687648296356201,
                -0.0002999941061716527,
                0.025437604635953903
            ],
            "min" : [
                -0.11687647551298141,
                -0.000300005980534479,
                -0.0254376120865345
            ],
            "type" : "VEC3"
        },
        {
            "bufferView" : 12,
            "componentType" : 5126,
            "count" : 4,
            "type" : "VEC3"
        },
        {
            "bufferView" : 13,
            "componentType" : 5126,
            "count" : 4,
            "type" : "VEC2"
        },
        {
            "bufferView" : 14,
            "componentType" : 5126,
            "count" : 4,
            "max" : [
                0.12178559601306915,
                -0.00029999398975633085,
                0.025412211194634438
            ],
            "min" : [
                -0.12178559601306915,
                -0.0003000061260536313,
                -0.025412211194634438
            ],
            "type" : "VEC3"
        },
        {
            "bufferView" : 15,
            "componentType" : 5126,
            "count" : 4,
            "type" : "VEC3"
        },
        {
            "bufferView" : 16,
            "componentType" : 5126,
            "count" : 4,
            "type" : "VEC2"
        },
        {
            "bufferView" : 17,
            "componentType" : 5126,
            "count" : 4,
            "max" : [
                0.12391825020313263,
                0,
                0.025347966700792313
            ],
            "min" : [
                -0.12391825020313263,
                0,
                -0.025347966700792313
            ],
            "type" : "VEC3"
        },
        {
            "bufferView" : 18,
            "componentType" : 5126,
            "count" : 4,
            "type" : "VEC3"
        },
        {
            "bufferView" : 19,
            "componentType" : 5126,
            "count" : 4,
            "type" : "VEC2"
        },
        {
            "bufferView" : 20,
            "componentType" : 5126,
            "count" : 4,
            "max" : [
                0.11687648296356201,
                -0.0002999941061716527,
                0.025437604635953903
            ],
            "min" : [
                -0.11687647551298141,
                -0.000300005980534479,
                -0.0254376120865345
            ],
            "type" : "VEC3"
        },
        {
            "bufferView" : 21,
            "componentType" : 5126,
            "count" : 4,
            "type" : "VEC3"
        },
        {
            "bufferView" : 22,
            "componentType" : 5126,
            "count" : 4,
            "type" : "VEC2"
        },
        {
            "bufferView" : 23,
            "componentType" : 5126,
            "count" : 4,
            "max" : [
                0.12178559601306915,
                -0.00029999398975633085,
                0.025412211194634438
            ],
            "min" : [
                -0.12178559601306915,
                -0.0003000061260536313,
                -0.025412211194634438
            ],
            "type" : "VEC3"
        },
        {
            "bufferView" : 24,
            "componentType" : 5126,
            "count" : 4,
            "type" : "VEC3"
        },
        {
            "bufferView" : 25,
            "componentType" : 5126,
            "count" : 4,
            "type" : "VEC2"
        },
        {
            "bufferView" : 26,
            "componentType" : 5126,
            "count" : 28,
            "max" : [
                0.0011687733931466937,
                -0.0002999899734277278,
                0.18633155524730682
            ],
            "min" : [
                -0.19989113509655,
                -0.09631949663162231,
                0.025437604635953903
            ],
            "type" : "VEC3"
        },
        {
            "bufferView" : 27,
            "componentType" : 5126,
            "count" : 28,
            "type" : "VEC3"
        },
        {
            "bufferView" : 28,
            "componentType" : 5126,
            "count" : 28,
            "type" : "VEC2"
        },
        {
            "bufferView" : 29,
            "componentType" : 5123,
            "count" : 42,
            "type" : "SCALAR"
        },
        {
            "bufferView" : 30,
            "componentType" : 5126,
            "count" : 28,
            "max" : [
                0.047051187604665756,
                0,
                0
            ],
            "min" : [
                -0.011950180865824223,
                -0.001026935875415802,
                -0.034914299845695496
            ],
            "type" : "VEC3"
        },
        {
            "bufferView" : 31,
            "componentType" : 5126,
            "count" : 28,
            "type" : "VEC3"
        },
        {
            "bufferView" : 32,
            "componentType" : 5126,
            "count" : 14,
            "max" : [
                0.22971196472644806,
                -0.09325997531414032,
                0.38950011134147644
            ],
            "min" : [
                0.06887487322092056,
                -0.09325997531414032,
                0.17671120166778564
            ],
            "type" : "VEC3"
        },
        {
            "bufferView" : 33,
            "componentType" : 5126,
            "count" : 14,
            "type" : "VEC3"
        },
        {
            "bufferView" : 34,
            "componentType" : 5126,
            "count" : 14,
            "type" : "VEC2"
        },
        {
            "bufferView" : 35,
            "componentType" : 5123,
            "count" : 18,
            "type" : "SCALAR"
        },
        {
            "bufferView" : 36,
            "componentType" : 5126,
            "count" : 14,
            "max" : [
                0,
                0,
                0
            ],
            "min" : [
                0,
                0,
                0
            ],
            "type" : "VEC3"
        },
        {
            "bufferView" : 37,
            "componentType" : 5126,
            "count" : 14,
            "type" : "VEC3"
        },
        {
            "bufferView" : 38,
            "componentType" : 5126,
            "count" : 28,
            "max" : [
                1.1666666666666667
            ],
            "min" : [
                0.041666666666666664
            ],
            "type" : "SCALAR"
        },
        {
            "bufferView" : 39,
            "componentType" : 5126,
            "count" : 28,
            "type" : "SCALAR"
        }
    ],
    "bufferViews" : [
        {
            "buffer" : 0,
            "byteLength" : 48,
            "byteOffset" : 0
        },
        {
            "buffer" : 0,
            "byteLength" : 48,
            "byteOffset" : 48
        },
        {
            "buffer" : 0,
            "byteLength" : 32,
            "byteOffset" : 96
        },
        {
            "buffer" : 0,
            "byteLength" : 12,
            "byteOffset" : 128
        },
        {
            "buffer" : 0,
            "byteLength" : 74863,
            "byteOffset" : 140
        },
        {
            "buffer" : 0,
            "byteLength" : 48,
            "byteOffset" : 75004
        },
        {
            "buffer" : 0,
            "byteLength" : 48,
            "byteOffset" : 75052
        },
        {
            "buffer" : 0,
            "byteLength" : 32,
            "byteOffset" : 75100
        },
        {
            "buffer" : 0,
            "byteLength" : 48,
            "byteOffset" : 75132
        },
        {
            "buffer" : 0,
            "byteLength" : 48,
            "byteOffset" : 75180
        },
        {
            "buffer" : 0,
            "byteLength" : 32,
            "byteOffset" : 75228
        },
        {
            "buffer" : 0,
            "byteLength" : 48,
            "byteOffset" : 75260
        },
        {
            "buffer" : 0,
            "byteLength" : 48,
            "byteOffset" : 75308
        },
        {
            "buffer" : 0,
            "byteLength" : 32,
            "byteOffset" : 75356
        },
        {
            "buffer" : 0,
            "byteLength" : 48,
            "byteOffset" : 75388
        },
        {
            "buffer" : 0,
            "byteLength" : 48,
            "byteOffset" : 75436
        },
        {
            "buffer" : 0,
            "byteLength" : 32,
            "byteOffset" : 75484
        },
        {
            "buffer" : 0,
            "byteLength" : 48,
            "byteOffset" : 75516
        },
        {
            "buffer" : 0,
            "byteLength" : 48,
            "byteOffset" : 75564
        },
        {
            "buffer" : 0,
            "byteLength" : 32,
            "byteOffset" : 75612
        },
        {
            "buffer" : 0,
            "byteLength" : 48,
            "byteOffset" : 75644
        },
        {
            "buffer" : 0,
            "byteLength" : 48,
            "byteOffset" : 75692
        },
        {
            "buffer" : 0,
            "byteLength" : 32,
            "byteOffset" : 75740
        },
        {
            "buffer" : 0,
            "byteLength" : 48,
            "byteOffset" : 75772
        },
        {
            "buffer" : 0,
            "byteLength" : 48,
            "byteOffset" : 75820
        },
        {
            "buffer" : 0,
            "byteLength" : 32,
            "byteOffset" : 75868
        },
        {
            "buffer" : 0,
            "byteLength" : 336,
            "byteOffset" : 75900
        },
        {
            "buffer" : 0,
            "byteLength" : 336,
            "byteOffset" : 76236
        },
        {
            "buffer" : 0,
            "byteLength" : 224,
            "byteOffset" : 76572
        },
        {
            "buffer" : 0,
            "byteLength" : 84,
            "byteOffset" : 76796
        },
        {
            "buffer" : 0,
            "byteLength" : 336,
            "byteOffset" : 76880
        },
        {
            "buffer" : 0,
            "byteLength" : 336,
            "byteOffset" : 77216
        },
        {
            "buffer" : 0,
            "byteLength" : 168,
            "byteOffset" : 77552
        },
        {
            "buffer" : 0,
            "byteLength" : 168,
            "byteOffset" : 77720
        },
        {
            "buffer" : 0,
            "byteLength" : 112,
            "byteOffset" : 77888
        },
        {
            "buffer" : 0,
            "byteLength" : 36,
            "byteOffset" : 78000
        },
        {
            "buffer" : 0,
            "byteLength" : 168,
            "byteOffset" : 78036
        },
        {
            "buffer" : 0,
            "byteLength" : 168,
            "byteOffset" : 78204
        },
        {
            "buffer" : 0,
            "byteLength" : 112,
            "byteOffset" : 78372
        },
        {
            "buffer" : 0,
            "byteLength" : 112,
            "byteOffset" : 78484
        }
    ],
    "buffers" : [
        {
            "byteLength" : 78596,
            "uri" : "data:application/octet-stream;base64,"
        }
    ]
}
