{
    "asset" : {
        "generator" : "Khronos glTF Blender I/O v1.3.48",
        "version" : "2.0"
    },
    "scene" : 0,
    "scenes" : [
        {
            "name" : "Scene",
            "nodes" : [
                7
            ]
        }
    ],
    "nodes" : [
        {
            "name" : "Bone.005",
            "rotation" : [
                -0.2210536152124405,
                -1.3856736202910724e-08,
                -0.037072136998176575,
                0.9745568633079529
            ],
            "scale" : [
                0.9999998807907104,
                0.9999998807907104,
                1
            ],
            "translation" : [
                -3.725290298461914e-09,
                0.023983854800462723,
                2.9802322387695312e-08
            ]
        },
        {
            "children" : [
                0
            ],
            "name" : "Bone.001",
            "rotation" : [
                -0.37884801626205444,
                -3.4140983188990504e-05,
                -0.06352894008159637,
                0.9232758283615112
            ],
            "scale" : [
                0.9999998807907104,
                0.9999997019767761,
                0.9999998807907104
            ],
            "translation" : [
                3.725290298461914e-09,
                0.02398383989930153,
                0
            ]
        },
        {
            "children" : [
                1
            ],
            "name" : "Bone.004",
            "rotation" : [
                -0.41848239302635193,
                -7.462723442586139e-05,
                -0.0701490193605423,
                0.9055119156837463
            ],
            "scale" : [
                0.9999994039535522,
                0.9999997615814209,
                0.9999997615814209
            ],
            "translation" : [
                0,
                0.023983843624591827,
                1.4901161193847656e-08
            ]
        },
        {
            "children" : [
                2
            ],
            "name" : "Bone.002",
            "rotation" : [
                -0.31627732515335083,
                -3.464725523372181e-05,
                -0.05317903682589531,
                0.9471752047538757
            ],
            "scale" : [
                1.0000003576278687,
                1.000000238418579,
                1.0000001192092896
            ],
            "translation" : [
                4.656612873077393e-10,
                0.02398381382226944,
                0
            ]
        },
        {
            "children" : [
                3
            ],
            "name" : "Bone.003",
            "rotation" : [
                -0.10790154337882996,
                -8.174373942892998e-05,
                -0.01685100607573986,
                0.9940187931060791
            ],
            "scale" : [
                1.0000001192092896,
                1.0000001192092896,
                0.9999999403953552
            ],
            "translation" : [
                0,
                0.023983895778656006,
                0
            ]
        },
        {
            "children" : [
                4
            ],
            "name" : "Bone",
            "rotation" : [
                -0.9929102063179016,
                0.027616677805781364,
                -0.0012760501122102141,
                0.11560725420713425
            ],
            "scale" : [
                0.9999999403953552,
                0.9999999403953552,
                1
            ],
            "translation" : [
                0.0015638917684555054,
                -0.3167843520641327,
                0.008912887424230576
            ]
        },
        {
            "mesh" : 0,
            "name" : "Cylinder.004",
            "skin" : 0
        },
        {
            "children" : [
                6,
                5
            ],
            "name" : "Armature.008",
            "translation" : [
                0.021334541961550713,
                0.05492284148931503,
                0.013532847166061401
            ]
        }
    ],
    "animations" : [
        {
            "channels" : [
                {
                    "sampler" : 0,
                    "target" : {
                        "node" : 5,
                        "path" : "translation"
                    }
                },
                {
                    "sampler" : 1,
                    "target" : {
                        "node" : 5,
                        "path" : "rotation"
                    }
                },
                {
                    "sampler" : 2,
                    "target" : {
                        "node" : 5,
                        "path" : "scale"
                    }
                },
                {
                    "sampler" : 3,
                    "target" : {
                        "node" : 4,
                        "path" : "translation"
                    }
                },
                {
                    "sampler" : 4,
                    "target" : {
                        "node" : 4,
                        "path" : "rotation"
                    }
                },
                {
                    "sampler" : 5,
                    "target" : {
                        "node" : 4,
                        "path" : "scale"
                    }
                },
                {
                    "sampler" : 6,
                    "target" : {
                        "node" : 3,
                        "path" : "translation"
                    }
                },
                {
                    "sampler" : 7,
                    "target" : {
                        "node" : 3,
                        "path" : "rotation"
                    }
                },
                {
                    "sampler" : 8,
                    "target" : {
                        "node" : 3,
                        "path" : "scale"
                    }
                },
                {
                    "sampler" : 9,
                    "target" : {
                        "node" : 2,
                        "path" : "translation"
                    }
                },
                {
                    "sampler" : 10,
                    "target" : {
                        "node" : 2,
                        "path" : "rotation"
                    }
                },
                {
                    "sampler" : 11,
                    "target" : {
                        "node" : 2,
                        "path" : "scale"
                    }
                },
                {
                    "sampler" : 12,
                    "target" : {
                        "node" : 1,
                        "path" : "translation"
                    }
                },
                {
                    "sampler" : 13,
                    "target" : {
                        "node" : 1,
                        "path" : "rotation"
                    }
                },
                {
                    "sampler" : 14,
                    "target" : {
                        "node" : 1,
                        "path" : "scale"
                    }
                },
                {
                    "sampler" : 15,
                    "target" : {
                        "node" : 0,
                        "path" : "translation"
                    }
                },
                {
                    "sampler" : 16,
                    "target" : {
                        "node" : 0,
                        "path" : "rotation"
                    }
                },
                {
                    "sampler" : 17,
                    "target" : {
                        "node" : 0,
                        "path" : "scale"
                    }
                }
            ],
            "name" : "Animation",
            "samplers" : [
                {
                    "input" : 7,
                    "interpolation" : "LINEAR",
                    "output" : 8
                },
                {
                    "input" : 7,
                    "interpolation" : "LINEAR",
                    "output" : 9
                },
                {
                    "input" : 7,
                    "interpolation" : "LINEAR",
                    "output" : 10
                },
                {
                    "input" : 7,
                    "interpolation" : "LINEAR",
                    "output" : 11
                },
                {
                    "input" : 7,
                    "interpolation" : "LINEAR",
                    "output" : 12
                },
                {
                    "input" : 7,
                    "interpolation" : "LINEAR",
                    "output" : 13
                },
                {
                    "input" : 7,
                    "interpolation" : "LINEAR",
                    "output" : 14
                },
                {
                    "input" : 7,
                    "interpolation" : "LINEAR",
                    "output" : 15
                },
                {
                    "input" : 7,
                    "interpolation" : "LINEAR",
                    "output" : 16
                },
                {
                    "input" : 7,
                    "interpolation" : "LINEAR",
                    "output" : 17
                },
                {
                    "input" : 7,
                    "interpolation" : "LINEAR",
                    "output" : 18
                },
                {
                    "input" : 7,
                    "interpolation" : "LINEAR",
                    "output" : 19
                },
                {
                    "input" : 7,
                    "interpolation" : "LINEAR",
                    "output" : 20
                },
                {
                    "input" : 7,
                    "interpolation" : "LINEAR",
                    "output" : 21
                },
                {
                    "input" : 7,
                    "interpolation" : "LINEAR",
                    "output" : 22
                },
                {
                    "input" : 7,
                    "interpolation" : "LINEAR",
                    "output" : 23
                },
                {
                    "input" : 7,
                    "interpolation" : "LINEAR",
                    "output" : 24
                },
                {
                    "input" : 7,
                    "interpolation" : "LINEAR",
                    "output" : 25
                }
            ]
        }
    ],
    "materials" : [
        {
            "doubleSided" : true,
            "emissiveFactor" : [
                0.08865559101104736,
                0.2345506250858307,
                0.7304609417915344
            ],
            "name" : "Material.004",
            "pbrMetallicRoughness" : {
                "baseColorFactor" : [
                    0.0886560007929802,
                    0.23455099761486053,
                    0.7304610013961792,
                    1
                ],
                "metallicFactor" : 0,
                "roughnessFactor" : 0.5
            }
        }
    ],
    "meshes" : [
        {
            "name" : "Cylinder.007",
            "primitives" : [
                {
                    "attributes" : {
                        "POSITION" : 0,
                        "NORMAL" : 1,
                        "TEXCOORD_0" : 2,
                        "JOINTS_0" : 3,
                        "WEIGHTS_0" : 4
                    },
                    "indices" : 5,
                    "material" : 0
                }
            ]
        }
    ],
    "skins" : [
        {
            "inverseBindMatrices" : 6,
            "joints" : [
                5,
                4,
                3,
                2,
                1,
                0
            ],
            "name" : "Armature.008"
        }
    ],
    "accessors" : [
        {
            "bufferView" : 0,
            "componentType" : 5126,
            "count" : 328,
            "max" : [
                0.04619628190994263,
                0.20560899376869202,
                0.03839460015296936
            ],
            "min" : [
                -0.0035272110253572464,
                0.05492284148931503,
                -0.011328894644975662
            ],
            "type" : "VEC3"
        },
        {
            "bufferView" : 1,
            "componentType" : 5126,
            "count" : 328,
            "type" : "VEC3"
        },
        {
            "bufferView" : 2,
            "componentType" : 5126,
            "count" : 328,
            "type" : "VEC2"
        },
        {
            "bufferView" : 3,
            "componentType" : 5123,
            "count" : 328,
            "type" : "VEC4"
        },
        {
            "bufferView" : 4,
            "componentType" : 5126,
            "count" : 328,
            "type" : "VEC4"
        },
        {
            "bufferView" : 5,
            "componentType" : 5123,
            "count" : 1536,
            "type" : "SCALAR"
        },
        {
            "bufferView" : 6,
            "componentType" : 5126,
            "count" : 6,
            "type" : "MAT4"
        },
        {
            "bufferView" : 7,
            "componentType" : 5126,
            "count" : 19,
            "max" : [
                0.7916666666666666
            ],
            "min" : [
                0.041666666666666664
            ],
            "type" : "SCALAR"
        },
        {
            "bufferView" : 8,
            "componentType" : 5126,
            "count" : 19,
            "type" : "VEC3"
        },
        {
            "bufferView" : 9,
            "componentType" : 5126,
            "count" : 19,
            "type" : "VEC4"
        },
        {
            "bufferView" : 10,
            "componentType" : 5126,
            "count" : 19,
            "type" : "VEC3"
        },
        {
            "bufferView" : 11,
            "componentType" : 5126,
            "count" : 19,
            "type" : "VEC3"
        },
        {
            "bufferView" : 12,
            "componentType" : 5126,
            "count" : 19,
            "type" : "VEC4"
        },
        {
            "bufferView" : 13,
            "componentType" : 5126,
            "count" : 19,
            "type" : "VEC3"
        },
        {
            "bufferView" : 14,
            "componentType" : 5126,
            "count" : 19,
            "type" : "VEC3"
        },
        {
            "bufferView" : 15,
            "componentType" : 5126,
            "count" : 19,
            "type" : "VEC4"
        },
        {
            "bufferView" : 16,
            "componentType" : 5126,
            "count" : 19,
            "type" : "VEC3"
        },
        {
            "bufferView" : 17,
            "componentType" : 5126,
            "count" : 19,
            "type" : "VEC3"
        },
        {
            "bufferView" : 18,
            "componentType" : 5126,
            "count" : 19,
            "type" : "VEC4"
        },
        {
            "bufferView" : 19,
            "componentType" : 5126,
            "count" : 19,
            "type" : "VEC3"
        },
        {
            "bufferView" : 20,
            "componentType" : 5126,
            "count" : 19,
            "type" : "VEC3"
        },
        {
            "bufferView" : 21,
            "componentType" : 5126,
            "count" : 19,
            "type" : "VEC4"
        },
        {
            "bufferView" : 22,
            "componentType" : 5126,
            "count" : 19,
            "type" : "VEC3"
        },
        {
            "bufferView" : 23,
            "componentType" : 5126,
            "count" : 19,
            "type" : "VEC3"
        },
        {
            "bufferView" : 24,
            "componentType" : 5126,
            "count" : 19,
            "type" : "VEC4"
        },
        {
            "bufferView" : 25,
            "componentType" : 5126,
            "count" : 19,
            "type" : "VEC3"
        }
    ],
    "bufferViews" : [
        {
            "buffer" : 0,
            "byteLength" : 3936,
            "byteOffset" : 0
        },
        {
            "buffer" : 0,
            "byteLength" : 3936,
            "byteOffset" : 3936
        },
        {
            "buffer" : 0,
            "byteLength" : 2624,
            "byteOffset" : 7872
        },
        {
            "buffer" : 0,
            "byteLength" : 2624,
            "byteOffset" : 10496
        },
        {
            "buffer" : 0,
            "byteLength" : 5248,
            "byteOffset" : 13120
        },
        {
            "buffer" : 0,
            "byteLength" : 3072,
            "byteOffset" : 18368
        },
        {
            "buffer" : 0,
            "byteLength" : 384,
            "byteOffset" : 21440
        },
        {
            "buffer" : 0,
            "byteLength" : 76,
            "byteOffset" : 21824
        },
        {
            "buffer" : 0,
            "byteLength" : 228,
            "byteOffset" : 21900
        },
        {
            "buffer" : 0,
            "byteLength" : 304,
            "byteOffset" : 22128
        },
        {
            "buffer" : 0,
            "byteLength" : 228,
            "byteOffset" : 22432
        },
        {
            "buffer" : 0,
            "byteLength" : 228,
            "byteOffset" : 22660
        },
        {
            "buffer" : 0,
            "byteLength" : 304,
            "byteOffset" : 22888
        },
        {
            "buffer" : 0,
            "byteLength" : 228,
            "byteOffset" : 23192
        },
        {
            "buffer" : 0,
            "byteLength" : 228,
            "byteOffset" : 23420
        },
        {
            "buffer" : 0,
            "byteLength" : 304,
            "byteOffset" : 23648
        },
        {
            "buffer" : 0,
            "byteLength" : 228,
            "byteOffset" : 23952
        },
        {
            "buffer" : 0,
            "byteLength" : 228,
            "byteOffset" : 24180
        },
        {
            "buffer" : 0,
            "byteLength" : 304,
            "byteOffset" : 24408
        },
        {
            "buffer" : 0,
            "byteLength" : 228,
            "byteOffset" : 24712
        },
        {
            "buffer" : 0,
            "byteLength" : 228,
            "byteOffset" : 24940
        },
        {
            "buffer" : 0,
            "byteLength" : 304,
            "byteOffset" : 25168
        },
        {
            "buffer" : 0,
            "byteLength" : 228,
            "byteOffset" : 25472
        },
        {
            "buffer" : 0,
            "byteLength" : 228,
            "byteOffset" : 25700
        },
        {
            "buffer" : 0,
            "byteLength" : 304,
            "byteOffset" : 25928
        },
        {
            "buffer" : 0,
            "byteLength" : 228,
            "byteOffset" : 26232
        }
    ],
    "buffers" : [
        {
            "byteLength" : 26460,
            "uri" : "data:application/octet-stream;base64,"
        }
    ]
}
