{
    "asset" : {
        "generator" : "Khronos glTF Blender I/O v1.3.48",
        "version" : "2.0"
    },
    "scene" : 0,
    "scenes" : [
        {
            "name" : "Scene",
            "nodes" : [
                0,
                8
            ]
        }
    ],
    "nodes" : [
        {
            "mesh" : 0,
            "name" : "path_original.001",
            "rotation" : [
                -0.0060890247114002705,
                0.0091594522818923,
                -0.7041800022125244,
                0.7099363207817078
            ],
            "scale" : [
                0.2978193163871765,
                0.2978193163871765,
                0.1348089873790741
            ],
            "translation" : [
                0.029166564345359802,
                -0.07247656583786011,
                0.060063209384679794
            ]
        },
        {
            "name" : "Bone.005",
            "rotation" : [
                -0.0029743120539933443,
                3.8250250327109825e-06,
                -0.00025767041370272636,
                0.9999956488609314
            ],
            "scale" : [
                0.9999997019767761,
                1,
                0.9999998807907104
            ],
            "translation" : [
                -1.0477377854201109e-09,
                0.023983871564269066,
                9.658835509185337e-09
            ]
        },
        {
            "children" : [
                1
            ],
            "name" : "Bone.001",
            "rotation" : [
                -0.010634236969053745,
                2.230383142887149e-05,
                -0.0009517487487755716,
                0.9999430179595947
            ],
            "scale" : [
                0.9999999403953552,
                0.9999998807907104,
                0.9999998807907104
            ],
            "translation" : [
                4.845788659224581e-09,
                0.02398396097123623,
                -3.1868756522612784e-09
            ]
        },
        {
            "children" : [
                2
            ],
            "name" : "Bone.004",
            "rotation" : [
                -0.028295379132032394,
                6.639505591010675e-05,
                -0.002580468077212572,
                0.9995962977409363
            ],
            "scale" : [
                0.999998927116394,
                1,
                1
            ],
            "translation" : [
                4.56567783579942e-10,
                0.023983903229236603,
                6.111794625951461e-09
            ]
        },
        {
            "children" : [
                3
            ],
            "name" : "Bone.002",
            "rotation" : [
                -0.0719294622540474,
                8.860771777108312e-05,
                -0.005804979708045721,
                0.9973928332328796
            ],
            "scale" : [
                1.0000003576278687,
                1.0000007152557373,
                1.0000003576278687
            ],
            "translation" : [
                -2.6748245840479967e-09,
                0.023983951658010483,
                1.8917910293847484e-10
            ]
        },
        {
            "children" : [
                4
            ],
            "name" : "Bone.003",
            "rotation" : [
                -0.07089007645845413,
                0.000663453305605799,
                -0.01056494191288948,
                0.9974279999732971
            ],
            "scale" : [
                1,
                1.000000238418579,
                1
            ],
            "translation" : [
                -7.439687199628509e-10,
                0.023983849212527275,
                5.457893692550897e-09
            ]
        },
        {
            "children" : [
                5
            ],
            "name" : "Bone",
            "rotation" : [
                -0.9884552359580994,
                -0.01432240940630436,
                -0.006956666707992554,
                0.1506744623184204
            ],
            "scale" : [
                0.9999995827674866,
                1,
                0.9999995231628418
            ],
            "translation" : [
                9.765313006937504e-05,
                0.05975879356265068,
                0.005270854104310274
            ]
        },
        {
            "mesh" : 1,
            "name" : "Cylinder.004",
            "skin" : 0
        },
        {
            "children" : [
                7,
                6
            ],
            "name" : "Armature.008",
            "translation" : [
                0.021334541961550713,
                0.05492284148931503,
                0.013532847166061401
            ]
        }
    ],
    "animations" : [
        {
            "channels" : [
                {
                    "sampler" : 0,
                    "target" : {
                        "node" : 6,
                        "path" : "translation"
                    }
                },
                {
                    "sampler" : 1,
                    "target" : {
                        "node" : 6,
                        "path" : "rotation"
                    }
                },
                {
                    "sampler" : 2,
                    "target" : {
                        "node" : 6,
                        "path" : "scale"
                    }
                },
                {
                    "sampler" : 3,
                    "target" : {
                        "node" : 5,
                        "path" : "translation"
                    }
                },
                {
                    "sampler" : 4,
                    "target" : {
                        "node" : 5,
                        "path" : "rotation"
                    }
                },
                {
                    "sampler" : 5,
                    "target" : {
                        "node" : 5,
                        "path" : "scale"
                    }
                },
                {
                    "sampler" : 6,
                    "target" : {
                        "node" : 4,
                        "path" : "translation"
                    }
                },
                {
                    "sampler" : 7,
                    "target" : {
                        "node" : 4,
                        "path" : "rotation"
                    }
                },
                {
                    "sampler" : 8,
                    "target" : {
                        "node" : 4,
                        "path" : "scale"
                    }
                },
                {
                    "sampler" : 9,
                    "target" : {
                        "node" : 3,
                        "path" : "translation"
                    }
                },
                {
                    "sampler" : 10,
                    "target" : {
                        "node" : 3,
                        "path" : "rotation"
                    }
                },
                {
                    "sampler" : 11,
                    "target" : {
                        "node" : 3,
                        "path" : "scale"
                    }
                },
                {
                    "sampler" : 12,
                    "target" : {
                        "node" : 2,
                        "path" : "translation"
                    }
                },
                {
                    "sampler" : 13,
                    "target" : {
                        "node" : 2,
                        "path" : "rotation"
                    }
                },
                {
                    "sampler" : 14,
                    "target" : {
                        "node" : 2,
                        "path" : "scale"
                    }
                },
                {
                    "sampler" : 15,
                    "target" : {
                        "node" : 1,
                        "path" : "translation"
                    }
                },
                {
                    "sampler" : 16,
                    "target" : {
                        "node" : 1,
                        "path" : "rotation"
                    }
                },
                {
                    "sampler" : 17,
                    "target" : {
                        "node" : 1,
                        "path" : "scale"
                    }
                }
            ],
            "name" : "Animation",
            "samplers" : [
                {
                    "input" : 11,
                    "interpolation" : "LINEAR",
                    "output" : 12
                },
                {
                    "input" : 11,
                    "interpolation" : "LINEAR",
                    "output" : 13
                },
                {
                    "input" : 11,
                    "interpolation" : "LINEAR",
                    "output" : 14
                },
                {
                    "input" : 11,
                    "interpolation" : "LINEAR",
                    "output" : 15
                },
                {
                    "input" : 11,
                    "interpolation" : "LINEAR",
                    "output" : 16
                },
                {
                    "input" : 11,
                    "interpolation" : "LINEAR",
                    "output" : 17
                },
                {
                    "input" : 11,
                    "interpolation" : "LINEAR",
                    "output" : 18
                },
                {
                    "input" : 11,
                    "interpolation" : "LINEAR",
                    "output" : 19
                },
                {
                    "input" : 11,
                    "interpolation" : "LINEAR",
                    "output" : 20
                },
                {
                    "input" : 11,
                    "interpolation" : "LINEAR",
                    "output" : 21
                },
                {
                    "input" : 11,
                    "interpolation" : "LINEAR",
                    "output" : 22
                },
                {
                    "input" : 11,
                    "interpolation" : "LINEAR",
                    "output" : 23
                },
                {
                    "input" : 11,
                    "interpolation" : "LINEAR",
                    "output" : 24
                },
                {
                    "input" : 11,
                    "interpolation" : "LINEAR",
                    "output" : 25
                },
                {
                    "input" : 11,
                    "interpolation" : "LINEAR",
                    "output" : 26
                },
                {
                    "input" : 11,
                    "interpolation" : "LINEAR",
                    "output" : 27
                },
                {
                    "input" : 11,
                    "interpolation" : "LINEAR",
                    "output" : 28
                },
                {
                    "input" : 11,
                    "interpolation" : "LINEAR",
                    "output" : 29
                }
            ]
        }
    ],
    "materials" : [
        {
            "doubleSided" : true,
            "emissiveFactor" : [
                0.08865559101104736,
                0.2345506250858307,
                0.7304609417915344
            ],
            "name" : "Material.001",
            "pbrMetallicRoughness" : {
                "baseColorFactor" : [
                    0.0886560007929802,
                    0.23455099761486053,
                    0.7304610013961792,
                    1
                ],
                "metallicFactor" : 0,
                "roughnessFactor" : 0.5
            }
        }
    ],
    "meshes" : [
        {
            "name" : "BezierCircle.013",
            "primitives" : [
                {
                    "attributes" : {
                        "POSITION" : 0,
                        "NORMAL" : 1,
                        "TEXCOORD_0" : 2
                    },
                    "indices" : 3,
                    "material" : 0
                }
            ]
        },
        {
            "name" : "Cylinder.007",
            "primitives" : [
                {
                    "attributes" : {
                        "POSITION" : 4,
                        "NORMAL" : 5,
                        "TEXCOORD_0" : 6,
                        "JOINTS_0" : 7,
                        "WEIGHTS_0" : 8
                    },
                    "indices" : 9,
                    "material" : 0
                }
            ]
        }
    ],
    "skins" : [
        {
            "inverseBindMatrices" : 10,
            "joints" : [
                6,
                5,
                4,
                3,
                2,
                1
            ],
            "name" : "Armature.008"
        }
    ],
    "accessors" : [
        {
            "bufferView" : 0,
            "componentType" : 5126,
            "count" : 793,
            "max" : [
                0.9199339151382446,
                0.07275710999965668,
                0.9319778680801392
            ],
            "min" : [
                -0.8397207856178284,
                -0.037385426461696625,
                -0.3726026117801666
            ],
            "type" : "VEC3"
        },
        {
            "bufferView" : 1,
            "componentType" : 5126,
            "count" : 793,
            "type" : "VEC3"
        },
        {
            "bufferView" : 2,
            "componentType" : 5126,
            "count" : 793,
            "type" : "VEC2"
        },
        {
            "bufferView" : 3,
            "componentType" : 5123,
            "count" : 4320,
            "type" : "SCALAR"
        },
        {
            "bufferView" : 4,
            "componentType" : 5126,
            "count" : 328,
            "max" : [
                0.04211188107728958,
                -0.2552701532840729,
                0.02400343120098114
            ],
            "min" : [
                -0.007535602897405624,
                -0.40169867873191833,
                -0.02537112683057785
            ],
            "type" : "VEC3"
        },
        {
            "bufferView" : 5,
            "componentType" : 5126,
            "count" : 328,
            "type" : "VEC3"
        },
        {
            "bufferView" : 6,
            "componentType" : 5126,
            "count" : 328,
            "type" : "VEC2"
        },
        {
            "bufferView" : 7,
            "componentType" : 5123,
            "count" : 328,
            "type" : "VEC4"
        },
        {
            "bufferView" : 8,
            "componentType" : 5126,
            "count" : 328,
            "type" : "VEC4"
        },
        {
            "bufferView" : 9,
            "componentType" : 5123,
            "count" : 1536,
            "type" : "SCALAR"
        },
        {
            "bufferView" : 10,
            "componentType" : 5126,
            "count" : 6,
            "type" : "MAT4"
        },
        {
            "bufferView" : 11,
            "componentType" : 5126,
            "count" : 19,
            "max" : [
                0.7916666666666666
            ],
            "min" : [
                0.041666666666666664
            ],
            "type" : "SCALAR"
        },
        {
            "bufferView" : 12,
            "componentType" : 5126,
            "count" : 19,
            "type" : "VEC3"
        },
        {
            "bufferView" : 13,
            "componentType" : 5126,
            "count" : 19,
            "type" : "VEC4"
        },
        {
            "bufferView" : 14,
            "componentType" : 5126,
            "count" : 19,
            "type" : "VEC3"
        },
        {
            "bufferView" : 15,
            "componentType" : 5126,
            "count" : 19,
            "type" : "VEC3"
        },
        {
            "bufferView" : 16,
            "componentType" : 5126,
            "count" : 19,
            "type" : "VEC4"
        },
        {
            "bufferView" : 17,
            "componentType" : 5126,
            "count" : 19,
            "type" : "VEC3"
        },
        {
            "bufferView" : 18,
            "componentType" : 5126,
            "count" : 19,
            "type" : "VEC3"
        },
        {
            "bufferView" : 19,
            "componentType" : 5126,
            "count" : 19,
            "type" : "VEC4"
        },
        {
            "bufferView" : 20,
            "componentType" : 5126,
            "count" : 19,
            "type" : "VEC3"
        },
        {
            "bufferView" : 21,
            "componentType" : 5126,
            "count" : 19,
            "type" : "VEC3"
        },
        {
            "bufferView" : 22,
            "componentType" : 5126,
            "count" : 19,
            "type" : "VEC4"
        },
        {
            "bufferView" : 23,
            "componentType" : 5126,
            "count" : 19,
            "type" : "VEC3"
        },
        {
            "bufferView" : 24,
            "componentType" : 5126,
            "count" : 19,
            "type" : "VEC3"
        },
        {
            "bufferView" : 25,
            "componentType" : 5126,
            "count" : 19,
            "type" : "VEC4"
        },
        {
            "bufferView" : 26,
            "componentType" : 5126,
            "count" : 19,
            "type" : "VEC3"
        },
        {
            "bufferView" : 27,
            "componentType" : 5126,
            "count" : 19,
            "type" : "VEC3"
        },
        {
            "bufferView" : 28,
            "componentType" : 5126,
            "count" : 19,
            "type" : "VEC4"
        },
        {
            "bufferView" : 29,
            "componentType" : 5126,
            "count" : 19,
            "type" : "VEC3"
        }
    ],
    "bufferViews" : [
        {
            "buffer" : 0,
            "byteLength" : 9516,
            "byteOffset" : 0
        },
        {
            "buffer" : 0,
            "byteLength" : 9516,
            "byteOffset" : 9516
        },
        {
            "buffer" : 0,
            "byteLength" : 6344,
            "byteOffset" : 19032
        },
        {
            "buffer" : 0,
            "byteLength" : 8640,
            "byteOffset" : 25376
        },
        {
            "buffer" : 0,
            "byteLength" : 3936,
            "byteOffset" : 34016
        },
        {
            "buffer" : 0,
            "byteLength" : 3936,
            "byteOffset" : 37952
        },
        {
            "buffer" : 0,
            "byteLength" : 2624,
            "byteOffset" : 41888
        },
        {
            "buffer" : 0,
            "byteLength" : 2624,
            "byteOffset" : 44512
        },
        {
            "buffer" : 0,
            "byteLength" : 5248,
            "byteOffset" : 47136
        },
        {
            "buffer" : 0,
            "byteLength" : 3072,
            "byteOffset" : 52384
        },
        {
            "buffer" : 0,
            "byteLength" : 384,
            "byteOffset" : 55456
        },
        {
            "buffer" : 0,
            "byteLength" : 76,
            "byteOffset" : 55840
        },
        {
            "buffer" : 0,
            "byteLength" : 228,
            "byteOffset" : 55916
        },
        {
            "buffer" : 0,
            "byteLength" : 304,
            "byteOffset" : 56144
        },
        {
            "buffer" : 0,
            "byteLength" : 228,
            "byteOffset" : 56448
        },
        {
            "buffer" : 0,
            "byteLength" : 228,
            "byteOffset" : 56676
        },
        {
            "buffer" : 0,
            "byteLength" : 304,
            "byteOffset" : 56904
        },
        {
            "buffer" : 0,
            "byteLength" : 228,
            "byteOffset" : 57208
        },
        {
            "buffer" : 0,
            "byteLength" : 228,
            "byteOffset" : 57436
        },
        {
            "buffer" : 0,
            "byteLength" : 304,
            "byteOffset" : 57664
        },
        {
            "buffer" : 0,
            "byteLength" : 228,
            "byteOffset" : 57968
        },
        {
            "buffer" : 0,
            "byteLength" : 228,
            "byteOffset" : 58196
        },
        {
            "buffer" : 0,
            "byteLength" : 304,
            "byteOffset" : 58424
        },
        {
            "buffer" : 0,
            "byteLength" : 228,
            "byteOffset" : 58728
        },
        {
            "buffer" : 0,
            "byteLength" : 228,
            "byteOffset" : 58956
        },
        {
            "buffer" : 0,
            "byteLength" : 304,
            "byteOffset" : 59184
        },
        {
            "buffer" : 0,
            "byteLength" : 228,
            "byteOffset" : 59488
        },
        {
            "buffer" : 0,
            "byteLength" : 228,
            "byteOffset" : 59716
        },
        {
            "buffer" : 0,
            "byteLength" : 304,
            "byteOffset" : 59944
        },
        {
            "buffer" : 0,
            "byteLength" : 228,
            "byteOffset" : 60248
        }
    ],
    "buffers" : [
        {
            "byteLength" : 60476,
            "uri" : "data:application/octet-stream;base64,"
        }
    ]
}
