{
    "asset" : {
        "generator" : "Khronos glTF Blender I/O v1.3.48",
        "version" : "2.0"
    },
    "scene" : 0,
    "scenes" : [
        {
            "name" : "Scene",
            "nodes" : [
                0
            ]
        }
    ],
    "nodes" : [
        {
            "mesh" : 0,
            "name" : "lopoly_MV",
            "rotation" : [
                0.07051840424537659,
                -0.18628479540348053,
                -0.5446118712425232,
                0.8146920204162598
            ],
            "scale" : [
                0.017272042110562325,
                0.0016965526156127453,
                0.0016965530812740326
            ],
            "translation" : [
                0.09606834501028061,
                -0.1222536563873291,
                -0.011643650010228157
            ]
        }
    ],
    "animations" : [
        {
            "channels" : [
                {
                    "sampler" : 0,
                    "target" : {
                        "node" : 0,
                        "path" : "weights"
                    }
                }
            ],
            "name" : "Animation",
            "samplers" : [
                {
                    "input" : 5,
                    "interpolation" : "LINEAR",
                    "output" : 6
                }
            ]
        }
    ],
    "materials" : [
        {
            "doubleSided" : true,
            "emissiveFactor" : [
                0,
                0,
                0
            ],
            "name" : "GoB_Cube_004",
            "pbrMetallicRoughness" : {
                "baseColorFactor" : [
                    0.49692243337631226,
                    0.4600217342376709,
                    0.43407759070396423,
                    1
                ],
                "metallicFactor" : 0,
                "roughnessFactor" : 0.08937197923660278
            }
        }
    ],
    "meshes" : [
        {
            "extras" : {
                "targetNames" : [
                    "Key 8"
                ]
            },
            "name" : "Cube_004.002",
            "primitives" : [
                {
                    "attributes" : {
                        "POSITION" : 0,
                        "NORMAL" : 1
                    },
                    "indices" : 2,
                    "material" : 0,
                    "targets" : [
                        {
                            "POSITION" : 3,
                            "NORMAL" : 4
                        }
                    ]
                }
            ],
            "weights" : [
                0.15600000321865082
            ]
        }
    ],
    "accessors" : [
        {
            "bufferView" : 0,
            "componentType" : 5126,
            "count" : 17894,
            "max" : [
                4.328619956970215,
                47.06748962402344,
                103.38948059082031
            ],
            "min" : [
                -7.4439215660095215,
                -75.80687713623047,
                -16.227031707763672
            ],
            "type" : "VEC3"
        },
        {
            "bufferView" : 1,
            "componentType" : 5126,
            "count" : 17894,
            "type" : "VEC3"
        },
        {
            "bufferView" : 2,
            "componentType" : 5123,
            "count" : 107631,
            "type" : "SCALAR"
        },
        {
            "bufferView" : 3,
            "componentType" : 5126,
            "count" : 17894,
            "max" : [
                1.3181304931640625,
                24.755126953125,
                58.15403747558594
            ],
            "min" : [
                -2.9587619304656982,
                -9.065673828125,
                -29.961090087890625
            ],
            "type" : "VEC3"
        },
        {
            "bufferView" : 4,
            "componentType" : 5126,
            "count" : 17894,
            "type" : "VEC3"
        },
        {
            "bufferView" : 5,
            "componentType" : 5126,
            "count" : 19,
            "max" : [
                0.7916666666666666
            ],
            "min" : [
                0.041666666666666664
            ],
            "type" : "SCALAR"
        },
        {
            "bufferView" : 6,
            "componentType" : 5126,
            "count" : 19,
            "type" : "SCALAR"
        }
    ],
    "bufferViews" : [
        {
            "buffer" : 0,
            "byteLength" : 214728,
            "byteOffset" : 0
        },
        {
            "buffer" : 0,
            "byteLength" : 214728,
            "byteOffset" : 214728
        },
        {
            "buffer" : 0,
            "byteLength" : 215262,
            "byteOffset" : 429456
        },
        {
            "buffer" : 0,
            "byteLength" : 214728,
            "byteOffset" : 644720
        },
        {
            "buffer" : 0,
            "byteLength" : 214728,
            "byteOffset" : 859448
        },
        {
            "buffer" : 0,
            "byteLength" : 76,
            "byteOffset" : 1074176
        },
        {
            "buffer" : 0,
            "byteLength" : 76,
            "byteOffset" : 1074252
        }
    ],
    "buffers" : [
        {
            "byteLength" : 1074328,
            "uri" : "data:application/octet-stream;base64,"
        }
    ]
}
