<svg width="28" height="28" viewBox="0 0 29 29" fill="none" xmlns="http://www.w3.org/2000/svg">
<g id="flow">
<circle id="back-circle" cx="14" cy="14" r="12.995" stroke="white" stroke-opacity="0.01" stroke-width="0.01"/>
<path id="drop" d="M11.1615 12.9741C11.8188 11.7534 12.7614 10.3055 13.9998 8.62612C15.2383 10.3055 16.1809 11.7534 16.8382 12.9741C17.6453 14.4731 17.9582 15.515 17.9582 16.171C17.9582 16.6909 17.8558 17.2056 17.6569 17.6858C17.4579 18.1661 17.1664 18.6024 16.7988 18.97C16.4312 19.3376 15.9949 19.6291 15.5146 19.8281C15.0344 20.027 14.5197 20.1294 13.9998 20.1294C13.48 20.1294 12.9653 20.027 12.485 19.8281C12.0048 19.6291 11.5684 19.3376 11.2009 18.97C10.8333 18.6024 10.5417 18.1661 10.3428 17.6858C10.1439 17.2056 10.0415 16.6909 10.0415 16.171C10.0415 15.515 10.3544 14.4731 11.1615 12.9741Z" fill="#708FFD" stroke="white" stroke-width="2"/>
<path id="arrow" d="M12.9375 0.1875V2.3125H14V0.1875H12.9375ZM10.6467 0.652875L9.75 0.883437L9.71813 0.915312L9.68306 0.917438L8.78737 1.24894H8.7555L8.72044 1.28081L8.62269 1.31481L9.51837 3.24113H9.55344L9.61931 3.20925L10.3503 2.94362L10.4162 2.90962L11.2449 2.67588L10.6499 0.651813L10.6467 0.652875ZM18.25 1.25V9.75H20.375V4.20375C23.5944 6.3075 25.6875 9.81375 25.6875 14C25.6875 20.4334 20.4334 25.6875 14 25.6875C7.56656 25.6875 2.3125 20.4334 2.3125 14V12.9375H0.1875V14C0.1875 21.5916 6.40844 27.8125 14 27.8125C21.5916 27.8125 27.8125 21.5916 27.8125 14C27.8125 9.68625 25.9053 5.90906 22.8655 3.375H26.75V1.25H18.25ZM6.72825 2.3125L6.16513 2.678L6.13112 2.70988H6.09925L5.36613 3.27513L5.33425 3.30913H5.30025L5.00275 3.57475L6.39675 5.1685L6.6305 4.96875L6.69425 4.93687L7.29244 4.46938L7.35938 4.4375L7.85875 4.10494L6.72719 2.3125H6.72825ZM3.47487 5.06862L3.24113 5.36613L3.20925 5.40013L3.17525 5.43413L2.61213 6.16406V6.19594L2.57812 6.231L2.21263 6.79413L4.00612 7.95756L4.30363 7.45819L4.37163 7.39231L4.83594 6.76331L4.86781 6.72931L5.10156 6.46369L3.47594 5.06969L3.47487 5.06862ZM1.21813 8.6875L1.18306 8.82031L1.15119 8.85219V8.88725L0.817562 9.75V9.78187L0.785687 9.84987L0.551937 10.7466L2.57706 11.3098L2.81081 10.481L2.84269 10.4141L3.10831 9.68306L3.14019 9.61719V9.58531L1.21813 8.6875Z" fill="white"/>
</g>
</svg>
