<svg width="32" height="29" viewBox="0 0 32 29" fill="none" xmlns="http://www.w3.org/2000/svg">
<path id="pathology" d="M28.4949 3.45588L28.495 3.45584L28.4882 3.44895C25.6191 0.51745 21.13 0.2283 17.9174 2.52567L17.3179 2.95439L17.5499 3.65393L19.1855 8.58443L14.5703 11.6612L13.9101 12.1014L14.1887 12.8444L15.1926 15.5213L11.445 11.7737L15.6798 8.95054L16.3137 8.52793L16.0745 7.80457L14.5105 3.07438L14.4099 2.77016L14.1513 2.58105C10.9348 0.22931 6.40419 0.497574 3.51534 3.45079L3.38812 3.57802L3.38807 3.57797L3.38026 3.58596C0.350779 6.68387 0.229805 11.5954 2.92246 14.8823L2.94908 14.9148L2.97833 14.945L14.5769 26.899L14.5777 26.8998C15.3586 27.7027 16.6359 27.7027 17.4168 26.8998L17.4177 26.899L29.0217 14.9395L29.0506 14.9097L29.077 14.8776C31.7697 11.5967 31.649 6.68714 28.6231 3.58938L28.4949 3.45588Z" fill="#708FFD" stroke="white" stroke-width="2"/>
</svg>
